<svg xmlns="http://www.w3.org/2000/svg" viewBox="0 0 16 16">
  <path d="M15.2 2c.44 0 .8.36.8.8v10.4c0 .44-.36.8-.8.8h-2.4a1.2 1.2 0 1 0-2.4 0H5.6a1.2 1.2 0 0 0-2.4 0H.8c-.44 0-.8-.36-.8-.8V2.8c0-.44.36-.8.8-.8h14.4zM9 10.562v-.437a.44.44 0 0 0-.242-.392c-.075-.037-1.859-.92-3.258-.92s-3.183.883-3.258.92a.44.44 0 0 0-.242.392v.437c0 .242.196.438.438.438h6.125A.438.438 0 0 0 9 10.562zm-5.287-4.74v.875c0 .965.785 1.75 1.75 1.75s1.75-.785 1.75-1.75v-.875c0-.965-.785-1.75-1.75-1.75s-1.75.785-1.75 1.75zM10 11h4v-1h-4v1zm0-3h4V7h-4v1zm0-3h4V4h-4v1z"/>
</svg>
