<svg xmlns="http://www.w3.org/2000/svg" viewBox="0 0 16 16">
  <path d="M6.858 13.693h2.285v-2.308H6.858v2.308zm-4.571 0h2.285v-2.308H2.287v2.308zm9.142-3.462h2.285V7.923h-2.285v2.308zm-4.571 0h2.285V7.923H6.858v2.308zm-4.571 0h2.285V7.923H2.287v2.308zm10.021-8.755c0-.128-.145-.24-.309-.24h-.613c-.164 0-.308.112-.308.24v2.921c0 .127.144.24.308.24h.613c.164 0 .309-.113.309-.24V1.476zm-7.385 0c0-.128-.144-.24-.308-.24h-.614c-.164 0-.308.112-.308.24v2.921c0 .127.144.24.308.24h.614c.164 0 .308-.113.308-.24V1.476zM16 14.764C16 15.44 15.443 16 14.77 16H1.231C.558 16 0 15.44 0 14.764V3.71c0-.676.558-1.236 1.231-1.236h1.231v-.927C2.462.696 3.155 0 4.001 0h.614c.846 0 1.54.696 1.54 1.546v.927h3.691v-.927c0-.85.693-1.546 1.54-1.546h.613c.847 0 1.539.696 1.539 1.546v.927h1.232c.673 0 1.23.56 1.23 1.236v11.055z"/>
</svg>
