<svg xmlns="http://www.w3.org/2000/svg" viewBox="0 0 16 16">
  <path d="M8.007 10.469a2.503 2.503 0 0 1-2.5-2.5c0-1.378 1.122-2.5 2.5-2.5s2.5 1.122 2.5 2.5-1.122 2.5-2.5 2.5m7.746-3.953l-1.476-.238a6.483 6.483 0 0 0-.835-1.869l.923-1.111a.281.281 0 0 0-.017-.369l-1.524-1.523a.29.29 0 0 0-.373-.022l-1.209.953a6.44 6.44 0 0 0-1.845-.715L9.3.25A.272.272 0 0 0 9.033 0H6.879a.278.278 0 0 0-.271.249l-.117 1.405c-.627.15-1.217.39-1.758.707l-1.271-.979a.292.292 0 0 0-.374.024L1.564 2.929a.29.29 0 0 0-.021.373l.966 1.21a6.457 6.457 0 0 0-.787 1.825l-1.473.114A.276.276 0 0 0 0 6.72v2.155c0 .137.112.263.248.28l1.403.169c.144.682.399 1.323.74 1.908l-.847 1.062a.287.287 0 0 0 .02.372l1.524 1.524a.3.3 0 0 0 .377.027l1.046-.774a6.47 6.47 0 0 0 2.068.864l.108 1.444c.01.137.131.249.268.249h2.013a.291.291 0 0 0 .282-.248l.183-1.445a6.438 6.438 0 0 0 2.03-.84l.985.748c.11.083.279.071.376-.025l1.524-1.524a.3.3 0 0 0 .027-.378l-.767-1.032a6.472 6.472 0 0 0 .788-2.117l1.355-.107A.275.275 0 0 0 16 8.763V6.806a.305.305 0 0 0-.247-.29"/>
</svg>
