<svg xmlns="http://www.w3.org/2000/svg" viewBox="0 0 16 16">
  <path d="M16 9.6V6.4h-1.8c-.2-.8-.5-1.4-.9-2.1l1.1-1.1-1.6-1.6-1.1 1.1c-.7-.4-1.4-.7-2.1-.9V0H6.4v1.8c-.7.2-1.4.5-2.1.9L3.2 1.6 1.6 3.2l1.1 1.1c-.4.7-.7 1.3-.9 2.1H0v3.2h1.8c.2.7.5 1.4.9 2l-1.1 1.1 1.6 1.6 1.1-1.1c.7.5 1.4.8 2.1 1V16h3.2v-1.8c.7-.2 1.4-.5 2.1-.9l1.1 1.1 1.6-1.6-1.1-1.1c.4-.6.7-1.3.9-2.1H16zm-8 1.694c-1.59 0-2.98-1.407-2.98-3.216C5.02 6.27 6.31 4.863 8 4.863s2.98 1.407 2.98 3.215c0 1.81-1.39 3.216-2.98 3.216z"/>
</svg>
