<svg xmlns="http://www.w3.org/2000/svg" width="32" height="32" viewBox="0 0 32 32">
  <path d="M31.783 28.4L18.033 1.2C17.635.4 16.838 0 16.041 0c-.797 0-1.594.4-1.993 1.2L.298 28.4c-.398.8-.398 1.6 0 2.4.4.8 1.196 1.2 1.994 1.2H29.59c.797 0 1.594-.4 1.993-1.2.398-.8.597-1.6.199-2.4zM18.63 28c0 .4-.199.6-.598.6h-3.985c-.398 0-.598-.4-.598-.6v-4c0-.4.399-.6.598-.6h3.985c.399 0 .598.4.598.6v4zm0-7.2c0 .2-.398.6-.797.6h-3.786c-.398 0-.797-.2-.797-.6l-.2-13c0-.2 0-.2.2-.4s.399-.2.598-.2h4.583c.2 0 .399 0 .598.2.2 0 .2.2.2.4l-.599 13z"/>
</svg>
