<svg xmlns="http://www.w3.org/2000/svg" width="32" height="32" viewBox="0 0 32 32">
  <path d="M16.964 10.807h-.019c-.27-.005-.47-.11-.597-.312-.248-.395-.177-1.11.185-1.866.597-1.246 1.797-2.26 2.675-2.26h.018c.27.005.47.11.597.312.248.396.177 1.111-.185 1.867-.597 1.246-1.796 2.259-2.674 2.259zM14.812 3.67C6.178 5.834-.456 14.265.025 22.464.294 26.75 2.713 30.339 6.38 32c-.135-4.627.526-9.427 1.92-13.916 1.568-5.053 3.982-9.581 7.174-13.458a.365.365 0 0 1 .143-.104c.67-.172 1.305-.295 1.935-.382.259-.005.416.154.416.356l-.04.158a.383.383 0 0 1-.05.071 13.498 13.498 0 0 0-1.393 1.72c-1.45 2.131-2.073 3.806-1.802 4.844.117.448.4.781.865 1.016.564.285 1.061.424 1.52.424 1.458 0 2.395-1.443 3.582-3.27.228-.35.464-.713.712-1.078A22.486 22.486 0 0 0 23.643 4c-1.492-.56-3.107-.843-4.808-.843-1.315 0-2.668.172-4.023.512zm-1.97 26.992c-1.352 0-2.66-.182-3.89-.54-.137-3.27.553-6.514 1.86-8.714.983-1.654 2.219-2.565 3.478-2.565 1.436 0 2.816 1.195 3.787 3.278.713 1.529 1.16 3.414 1.29 5.453a.36.36 0 0 0 .362.333l.113-.02a20.14 20.14 0 0 0 2.08-1.253.353.353 0 0 0 .155-.293l-.016-.109c-.966-2.324-1.877-5.174-1.397-8.884.503-3.886 2.465-8.173 5.998-13.106l.05-.102.015-.102a.35.35 0 0 0-.135-.277c-1.942-1.532-4.631-2.342-7.777-2.342-.556 0-1.13.026-1.712.077.448-.5.913-.993 1.391-1.476.266-.013.533-.02.796-.02 6.894 0 11.983 4.67 12.375 11.357.479 8.185-6.144 16.614-14.763 18.788-1.374.343-2.74.517-4.06.517z"/>
</svg>
