<svg xmlns="http://www.w3.org/2000/svg" viewBox="0 0 16 16">
  <path d="M8.482 5.403h-.01c-.134-.002-.235-.054-.298-.155-.124-.198-.088-.556.093-.934.298-.623.898-1.13 1.337-1.13h.009c.135.003.235.056.299.157.123.197.088.555-.093.933-.298.623-.898 1.13-1.337 1.13zM7.406 1.835C3.089 2.917-.228 7.132.012 11.232.147 13.375 1.357 15.169 3.191 16a21.597 21.597 0 0 1 .96-6.958c.783-2.527 1.99-4.79 3.586-6.729a.182.182 0 0 1 .072-.052c.335-.086.652-.148.968-.191.129-.003.208.077.208.178l-.02.079a.191.191 0 0 1-.026.036 6.749 6.749 0 0 0-.696.86c-.725 1.065-1.036 1.902-.901 2.421.059.225.2.391.433.509.281.142.53.211.76.211.728 0 1.197-.721 1.79-1.634.115-.176.232-.357.357-.54.439-.646.868-1.472 1.14-2.19a6.815 6.815 0 0 0-2.405-.421c-.657 0-1.334.086-2.011.256zM6.421 15.33c-.676 0-1.33-.09-1.945-.27-.069-1.635.276-3.257.93-4.357.492-.827 1.11-1.283 1.74-1.283.717 0 1.407.598 1.893 1.64.356.764.58 1.707.645 2.726a.18.18 0 0 0 .18.167l.057-.01a10.07 10.07 0 0 0 1.04-.627.176.176 0 0 0 .078-.146l-.009-.055c-.482-1.162-.938-2.587-.698-4.442.251-1.943 1.232-4.087 2.999-6.553l.025-.051.008-.05a.175.175 0 0 0-.068-.14C12.325 1.114 10.98.71 9.407.71a9.87 9.87 0 0 0-.855.038c.223-.25.456-.497.695-.738.133-.007.266-.01.398-.01 3.447 0 5.991 2.335 6.188 5.678.239 4.093-3.073 8.307-7.382 9.394a8.391 8.391 0 0 1-2.03.26z"/>
</svg>
