<svg xmlns="http://www.w3.org/2000/svg" viewBox="0 0 16 16">
  <path d="M8.565 5.403h-.01c-.136-.002-.237-.054-.301-.155-.125-.198-.09-.556.094-.934.301-.623.907-1.13 1.35-1.13h.009c.136.003.238.056.302.157.125.197.089.555-.094.933-.301.623-.907 1.13-1.35 1.13zM7.479 1.835C3.119 2.917-.231 7.132.012 11.232.148 13.375 1.37 15.169 3.222 16a21.401 21.401 0 0 1 .969-6.958c.792-2.527 2.01-4.79 3.622-6.729a.184.184 0 0 1 .072-.052c.338-.086.66-.148.978-.191.13-.003.21.077.21.178l-.02.079a.191.191 0 0 1-.026.036 6.762 6.762 0 0 0-.703.86c-.732 1.065-1.047 1.902-.91 2.421.06.225.202.391.437.509.284.142.536.211.768.211.735 0 1.208-.721 1.808-1.634.115-.176.234-.357.36-.54.443-.646.876-1.472 1.15-2.19A6.942 6.942 0 0 0 9.51 1.58c-.664 0-1.347.086-2.031.256zM6.484 15.33c-.683 0-1.343-.09-1.964-.27-.07-1.635.279-3.257.939-4.357.496-.827 1.12-1.283 1.756-1.283.725 0 1.422.598 1.912 1.64.36.764.586 1.707.651 2.726a.181.181 0 0 0 .183.167l.057-.01c.376-.195.72-.402 1.05-.627a.176.176 0 0 0 .079-.146l-.009-.055c-.487-1.162-.947-2.587-.705-4.442.254-1.943 1.245-4.087 3.028-6.553l.025-.051.008-.05a.174.174 0 0 0-.068-.14C12.446 1.114 11.088.71 9.5.71c-.281 0-.57.012-.865.038.226-.25.461-.497.703-.738.134-.007.269-.01.401-.01 3.481 0 6.05 2.335 6.249 5.678.241 4.093-3.103 8.307-7.454 9.394a8.552 8.552 0 0 1-2.05.26zM13.127 14a.989.989 0 0 1 .502-.866c.157-.089.326-.133.508-.133a1.016 1.016 0 0 1 .877.497.989.989 0 0 1 .133.502.985.985 0 0 1-.504.869 1.01 1.01 0 0 1-.506.132 1.007 1.007 0 0 1-.876-.499.987.987 0 0 1-.134-.502zm1.845 0a.83.83 0 0 0-.107-.413.828.828 0 0 0-.728-.42.84.84 0 0 0-.725.413.826.826 0 0 0-.111.42.83.83 0 0 0 .836.835.828.828 0 0 0 .727-.42.835.835 0 0 0 .108-.415zm-1.04.101v.45h-.214v-1.136h.4c.142 0 .255.031.338.092a.304.304 0 0 1 .124.26c0 .1-.054.177-.161.233a.244.244 0 0 1 .121.115c.024.05.035.111.035.184s.002.125.005.155c.004.03.01.056.02.076v.022h-.221a1.002 1.002 0 0 1-.019-.26c0-.067-.015-.116-.046-.146-.032-.03-.084-.045-.157-.045h-.225zm0-.179h.194c.07 0 .128-.014.173-.043.045-.028.067-.066.067-.112 0-.062-.017-.107-.05-.133-.034-.026-.095-.04-.183-.04h-.2v.328z"/>
</svg>
