<svg xmlns="http://www.w3.org/2000/svg" viewBox="0 0 16 16">
  <path d="M10.789 6.858c-.14.278-.366.562-.677.853l-.733.657c-.209.192-.354.39-.435.591a2.55 2.55 0 0 0-.134.541H6.985c0-.367.07-.838.21-1.183.142-.347.368-.647.684-.9.314-.254.554-.486.717-.697.165-.211.247-.444.247-.697 0-.618-.278-.927-.831-.927-.254 0-.46.09-.618.27-.14.159-.217.377-.24.748H5c.034-.893.293-1.498.792-1.93.527-.456 1.267-.684 2.22-.684.95 0 1.684.21 2.206.632.52.422.782 1.02.782 1.8 0 .339-.07.648-.211.926m-2.075 5.861A.98.98 0 0 1 8 13a.98.98 0 0 1-.714-.28A.965.965 0 0 1 7 12c0-.291.095-.532.286-.72A.98.98 0 0 1 8 11a.968.968 0 0 1 1 1 .969.969 0 0 1-.286.72M8 1C4.1 1 1 4.1 1 8s3.1 7 7 7 7-3.1 7-7-3.1-7-7-7"/>
</svg>
