<svg xmlns="http://www.w3.org/2000/svg" viewBox="0 0 16 16">
  <path d="M15.813 11.902a.555.555 0 0 1 .07.747l-2.326 3.138c-.105.14-.247.176-.423.213-.141 0-.282-.072-.387-.143l-1.482-1.565a.521.521 0 0 1 0-.749c.212-.213.565-.177.776 0l1.093 1.104 1.938-2.673a.543.543 0 0 1 .74-.072zm-2.47-5.268c0 3.664-2.986 6.634-6.671 6.634C2.988 13.268 0 10.298 0 6.634S2.988 0 6.672 0c3.685 0 6.671 2.97 6.671 6.634zM7.679 8.418V3.15a1.01 1.01 0 0 0-1-1.021c-.553 0-1 .456-1 1.02v3.208L3.688 6.34h-.009c-.548 0-.995.45-1 1.011a1.01 1.01 0 0 0 .991 1.03l4.009.037z"/>
</svg>
