<svg xmlns="http://www.w3.org/2000/svg" viewBox="0 0 16 16">
  <path d="M1.895 2.832c.7.619 1.47 1.127 2.291 1.513a17.386 17.386 0 0 0-.37 3.237H2.702v.028H.208a.398.398 0 0 0-.201.055 7.94 7.94 0 0 1 1.888-4.833zm12.304.094a7.938 7.938 0 0 1 1.808 4.684h-2.592v-.028h-1.18a17.435 17.435 0 0 0-.357-3.173 9.64 9.64 0 0 0 2.32-1.483zm-9.352 1.7a16.881 16.881 0 0 0-.32 2.956h6.786a16.973 16.973 0 0 0-.296-2.836 9.149 9.149 0 0 1-6.17-.12zm.233-.97C5.7 1.448 6.765 0 7.92 0c1.175 0 2.259 1.502 2.873 3.776a8.288 8.288 0 0 1-5.713-.12zM2.565 2.132A7.999 7.999 0 0 1 6.001.258C5.35.99 4.813 2.068 4.432 3.37a8.76 8.76 0 0 1-1.867-1.238zm8.38 9.472a16.72 16.72 0 0 0 .369-3.225H4.526c.024 1.206.166 2.34.396 3.345a8.03 8.03 0 0 1 6.022-.12zm-.249.957C10.07 14.645 9.036 16 7.92 16c-1.095 0-2.11-1.304-2.741-3.32a7.272 7.272 0 0 1 5.518-.118zm3.158.887a9.399 9.399 0 0 0-.652-.562 8.672 8.672 0 0 0-1.39-.931c.247-1.066.396-2.253.423-3.505h3.767a7.947 7.947 0 0 1-2.148 4.998zm-11.622.074A7.948 7.948 0 0 1 .01 8.398a.398.398 0 0 0 .198.053h3.607c.028 1.281.183 2.495.442 3.58a8.472 8.472 0 0 0-.398.237 9.165 9.165 0 0 0-1.627 1.255zm10.801.451c.046.041.09.083.135.125a7.995 7.995 0 0 1-3.019 1.59c.563-.678 1.038-1.62 1.392-2.742.526.28 1.026.624 1.492 1.027zM4 13.316c.172-.113.348-.218.526-.317.355 1.107.827 2.034 1.386 2.703a7.992 7.992 0 0 1-2.963-1.52A8.241 8.241 0 0 1 4 13.317zm7.593-10.032C11.216 2.028 10.69.986 10.06.27c1.25.33 2.38.953 3.313 1.792a8.584 8.584 0 0 1-1.78 1.222z"/>
</svg>
