<svg xmlns="http://www.w3.org/2000/svg" viewBox="0 0 16 16">
  <path d="M15.827 10.24a.5.5 0 0 1 .066.686l-2.197 2.878c-.099.13-.233.163-.399.196a.707.707 0 0 1-.366-.13l-1.399-1.438a.467.467 0 0 1 0-.686c.2-.196.532-.163.732 0l1.033 1.013 1.83-2.454a.523.523 0 0 1 .7-.065zM6.022 2c3.326 0 6.022 2.675 6.022 5.973 0 3.299-2.696 5.974-6.022 5.974S0 11.272 0 7.973C0 4.675 2.696 2 6.022 2zm1.122 7.449V4.412a.904.904 0 0 0-.915-.894c-.505 0-.913.4-.913.894v3.233l-1.82-.016h-.01a.904.904 0 0 0-.914.886.904.904 0 0 0 .906.902l3.666.032z"/>
</svg>
