<svg xmlns="http://www.w3.org/2000/svg" viewBox="0 0 16 16">
  <path d="M1.89 2.832a9.646 9.646 0 0 0 2.284 1.513 17.433 17.433 0 0 0-.369 3.237h-1.11v.028H.208a.396.396 0 0 0-.201.055A7.953 7.953 0 0 1 1.89 2.832zm12.27.094a7.951 7.951 0 0 1 1.802 4.684h-2.584v-.028H12.2a17.482 17.482 0 0 0-.355-3.173 9.61 9.61 0 0 0 2.314-1.483zm-9.327 1.7a16.927 16.927 0 0 0-.32 2.956h6.768a17.019 17.019 0 0 0-.295-2.836 9.1 9.1 0 0 1-6.153-.12zm.232-.97C5.683 1.448 6.746 0 7.897 0c1.172 0 2.253 1.502 2.866 3.776a8.244 8.244 0 0 1-5.697-.12zM2.558 2.132A7.97 7.97 0 0 1 5.984.258C5.337.99 4.8 2.068 4.42 3.37a8.734 8.734 0 0 1-1.862-1.238zm8.355 9.472c.214-.975.345-2.066.37-3.225h-6.77c.024 1.206.166 2.34.395 3.345a7.987 7.987 0 0 1 6.005-.12zm-.247.957C10.041 14.645 9.01 16 7.897 16c-1.091 0-2.104-1.304-2.733-3.32a7.233 7.233 0 0 1 5.502-.118zm3.15.887a9.38 9.38 0 0 0-.652-.562 8.646 8.646 0 0 0-1.386-.931c.248-1.066.396-2.253.423-3.505h3.757a7.958 7.958 0 0 1-2.142 4.998zm-11.59.074A7.959 7.959 0 0 1 .01 8.398a.396.396 0 0 0 .198.053h3.597a17.2 17.2 0 0 0 .44 3.58 8.443 8.443 0 0 0-.396.237 9.143 9.143 0 0 0-1.624 1.255zm10.77.451c.046.041.09.083.135.125a7.965 7.965 0 0 1-3.01 1.59c.56-.678 1.034-1.62 1.388-2.742.524.28 1.023.624 1.488 1.027zm-9.007-.658c.172-.113.347-.218.525-.317.353 1.107.824 2.034 1.381 2.703a7.961 7.961 0 0 1-2.954-1.52c.33-.322.681-.611 1.048-.866zM11.56 3.284c-.376-1.256-.9-2.298-1.528-3.014a7.968 7.968 0 0 1 3.303 1.792 8.559 8.559 0 0 1-1.775 1.222z"/>
</svg>
