<svg xmlns="http://www.w3.org/2000/svg" width="32" height="32" viewBox="0 0 32 32">
  <path fill-rule="evenodd" d="M6.257 12.513a6.04 6.04 0 0 1-2.473-.506A6.336 6.336 0 0 1 1.8 10.643c-.56-.57-.999-1.235-1.32-1.992A6.082 6.082 0 0 1 0 6.257c0-.874.163-1.69.49-2.447a6.3 6.3 0 0 1 1.336-1.984A6.274 6.274 0 0 1 3.82.49 6.137 6.137 0 0 1 6.257 0c.85 0 1.654.157 2.411.472a6.235 6.235 0 0 1 1.993 1.31c.57.56 1.022 1.221 1.354 1.984.332.763.498 1.594.498 2.49v4.213h6.974V6.257c0-.897.166-1.728.498-2.49a6.217 6.217 0 0 1 1.354-1.984A6.235 6.235 0 0 1 23.332.472 6.224 6.224 0 0 1 25.743 0c.863 0 1.675.163 2.438.49a6.274 6.274 0 0 1 1.993 1.336A6.3 6.3 0 0 1 31.51 3.81c.326.757.489 1.573.489 2.447 0 .839-.16 1.637-.48 2.394a6.358 6.358 0 0 1-1.32 1.992 6.336 6.336 0 0 1-1.984 1.364 6.04 6.04 0 0 1-2.473.506h-4.212v6.974h4.212c.886 0 1.71.169 2.473.506a6.336 6.336 0 0 1 1.984 1.364c.56.57.999 1.235 1.32 1.992.32.757.48 1.555.48 2.394 0 .874-.163 1.69-.49 2.447a6.3 6.3 0 0 1-1.336 1.984 6.274 6.274 0 0 1-1.993 1.337 6.137 6.137 0 0 1-2.438.489c-.85 0-1.654-.157-2.411-.472a6.235 6.235 0 0 1-1.993-1.31 6.217 6.217 0 0 1-1.354-1.984 6.174 6.174 0 0 1-.498-2.49V21.53h-6.974v4.212c0 .897-.166 1.728-.498 2.49a6.217 6.217 0 0 1-1.354 1.984c-.571.56-1.235.997-1.993 1.311A6.224 6.224 0 0 1 6.257 32a6.137 6.137 0 0 1-2.438-.49 6.274 6.274 0 0 1-1.993-1.336A6.3 6.3 0 0 1 .49 28.19 6.118 6.118 0 0 1 0 25.743c0-.839.16-1.637.48-2.394.321-.757.76-1.421 1.32-1.992a6.336 6.336 0 0 1 1.984-1.364 6.04 6.04 0 0 1 2.473-.506h4.212v-6.974H6.257zm4.212-2.044V6.257a4.195 4.195 0 0 0-1.215-2.98 4.255 4.255 0 0 0-1.337-.9 4.143 4.143 0 0 0-1.66-.332c-.583 0-1.125.11-1.626.332-.5.221-.94.521-1.32.9a4.195 4.195 0 0 0-1.215 2.98c.001.594.109 1.147.325 1.66a4.136 4.136 0 0 0 3.836 2.552h4.212zM6.257 21.53c-.583 0-1.125.108-1.626.324a4.136 4.136 0 0 0-2.21 2.228 4.24 4.24 0 0 0-.324 1.66 4.195 4.195 0 0 0 2.534 3.88 3.976 3.976 0 0 0 1.626.332c.594 0 1.147-.11 1.66-.332a4.136 4.136 0 0 0 2.228-2.237c.216-.513.324-1.06.324-1.643v-4.212H6.257zM25.743 10.47a4.162 4.162 0 0 0 2.945-1.215c.379-.379.676-.824.891-1.337a4.24 4.24 0 0 0 .324-1.66 4.195 4.195 0 0 0-1.215-2.98 4.283 4.283 0 0 0-1.328-.9 3.995 3.995 0 0 0-1.617-.332c-.594 0-1.147.11-1.66.332a4.136 4.136 0 0 0-2.228 2.237 4.195 4.195 0 0 0-.324 1.643v4.212h4.212zM21.531 21.53v4.212a4.195 4.195 0 0 0 1.215 2.98c.379.379.824.679 1.337.9a4.143 4.143 0 0 0 1.66.332c.571 0 1.11-.11 1.617-.332.507-.221.95-.521 1.328-.9a4.195 4.195 0 0 0 1.215-2.98 4.24 4.24 0 0 0-.324-1.66 4.136 4.136 0 0 0-.89-1.337 4.162 4.162 0 0 0-2.946-1.215h-4.212zm-2.044-9.018h-6.974v6.974h6.974v-6.974z"/>
</svg>
