<svg xmlns="http://www.w3.org/2000/svg" width="32" height="32" viewBox="0 0 32 32">
  <path d="M31.062 26.538c.605.604.938 1.408.938 2.262 0 .856-.333 1.658-.938 2.262A3.175 3.175 0 0 1 28.8 32c-.854 0-1.66-.333-2.264-.94l-7.242-7.24A12.72 12.72 0 0 1 12.8 25.6c-3.42 0-6.634-1.331-9.05-3.75A12.705 12.705 0 0 1 0 12.8c0-3.42 1.331-6.632 3.75-9.05A12.705 12.705 0 0 1 12.8 0c3.42 0 6.632 1.331 9.05 3.75a12.714 12.714 0 0 1 3.75 9.05 12.72 12.72 0 0 1-1.78 6.494l7.242 7.244zm-18.039-6.073c4.521 0 8.186-3.498 8.186-7.814 0-4.315-3.665-7.814-8.186-7.814-4.52 0-8.186 3.499-8.186 7.814 0 4.316 3.665 7.814 8.186 7.814z"/>
</svg>
