<svg xmlns="http://www.w3.org/2000/svg" viewBox="0 0 16 16">
  <path d="M15.531 13.269c.303.302.469.704.469 1.131 0 .428-.166.829-.469 1.131A1.588 1.588 0 0 1 14.4 16c-.427 0-.83-.166-1.132-.47l-3.62-3.62a6.36 6.36 0 0 1-3.248.89 6.352 6.352 0 0 1-4.525-1.875A6.352 6.352 0 0 1 0 6.4c0-1.71.666-3.316 1.875-4.525A6.352 6.352 0 0 1 6.4 0c1.71 0 3.316.666 4.525 1.875A6.357 6.357 0 0 1 12.8 6.4a6.36 6.36 0 0 1-.89 3.247l3.621 3.622zm-9.02-3.036c2.261 0 4.094-1.75 4.094-3.907 0-2.158-1.833-3.907-4.093-3.907S2.419 4.168 2.419 6.326c0 2.157 1.832 3.907 4.093 3.907z"/>
</svg>
