<svg xmlns="http://www.w3.org/2000/svg" width="32" height="32" viewBox="0 0 32 32">
  <path d="M14.593.004c10.26-.16 15.64 4.166 15.94 14.114 1.51.894 1.464 2.13 1.464 4.528 0 .862.045 1.744-.21 2.343-.735 1.73-2.263 1.78-4.703 1.758-.272 1.135-.948 2.166-1.516 3.035-1.607 2.46-3.537 4.272-6.376 5.486-1.27.544-3.226 1.012-4.913.533a13.615 13.615 0 0 1-4.494-2.237c-1.429-1.067-2.711-2.602-3.659-4.154a14.364 14.364 0 0 1-.888-1.758l-.314-.905H2.677c-.208-.13-.545-.07-.784-.16-.466-.175-1.034-.576-1.307-.959-.643-.904-.574-2.34-.574-3.941 0-.66-.063-1.402.104-1.918.17-.523.532-.987.889-1.331l.47-.32v-.372l.209-2.557c.375-1.59.625-3.227 1.359-4.474C4.686 3.923 6.803 1.91 10.098.803c.908-.305 1.895-.409 2.875-.639.414-.097 1.32.033 1.62-.16zm-5.9 15.44c-.65.47-1.44 1.003-2.469 1.07-.121 1.68.018 3.418.42 4.706l.158.748c.202.38.657.658.998.91 1.376 1.013 3.28 1.75 5.62 1.764.096-.287.349-.43.577-.588 1.252-.868 3.144-.756 4.149.267.26.266.706.771.525 1.444-.399 1.483-2.68 2.148-4.307 1.39-.421-.195-.883-.917-1.26-.962l-2.1-.267c-.924-.24-1.79-.62-2.627-.856v.054c.412.41.756.975 1.103 1.443.227.306.59.569.893.803.293.225.538.581.84.802.979.714 2.108 1.353 3.362 1.765 2.365.776 4.608-.456 5.987-1.39 3.808-2.583 5.996-6.37 5.566-12.942-.391-.251-.755-.607-1.155-.856-1.116-.696-3.553-1.454-5.252-1.498v.054c.4.29.761 1.063.84 1.658h-.052c-.655-.81-3.084-1.188-4.201-1.658-1.866-.785-3.633-2.073-4.517-3.85h-.105c-.086 2.855-1.296 4.758-2.993 5.99zm11.114.194c.855-.025 1.42.183 1.746.675.686 1.037-.072 2.287-.976 2.542-1.145.322-2.358-.842-1.951-2.075.223-.675.68-.757 1.181-1.142zm-8.365 0c.855-.025 1.42.183 1.745.675.69 1.042-.07 2.287-.975 2.542-1.143.322-2.355-.848-1.95-2.075.222-.675.68-.757 1.18-1.142zM9.506 2.664c-3.885 1.712-6.074 5.281-6.233 10.79h1.09c.42-4.165 2.726-7.632 5.715-9.203.834-.438 1.69-.628 2.701-.899 1.339-.358 4.06-.58 5.61-.211.997.236 1.988.41 2.858.793 3.527 1.554 5.84 4.957 6.39 9.52h1.09c-.053-5.04-2.24-8.932-5.662-10.525-.888-.413-1.852-.723-2.857-1.005l-1.143-.159c-1.19-.278-3.46-.451-4.78-.158l-.986.053c-1.361.318-2.644.499-3.793 1.004z"/>
</svg>
