<svg xmlns="http://www.w3.org/2000/svg" viewBox="0 0 16 16">
  <path d="M7.297.002c5.13-.08 7.82 2.083 7.97 7.057.754.447.731 1.065.731 2.264 0 .431.023.872-.104 1.171-.368.866-1.132.89-2.352.88-.136.567-.474 1.083-.758 1.517-.803 1.23-1.769 2.136-3.188 2.743-.635.272-1.613.506-2.456.266a6.808 6.808 0 0 1-2.248-1.118c-.714-.534-1.355-1.301-1.829-2.077-.165-.27-.32-.59-.444-.879l-.157-.453H1.338c-.104-.065-.272-.035-.391-.08-.233-.087-.518-.288-.654-.479-.321-.452-.287-1.17-.287-1.97 0-.33-.032-.702.052-.96.085-.261.266-.493.444-.665l.235-.16v-.186l.105-1.278c.187-.796.312-1.614.68-2.237C2.342 1.96 3.401.955 5.048.402c.454-.153.948-.205 1.437-.32.208-.049.66.016.81-.08zm-2.95 7.72c-.325.235-.72.501-1.235.535-.06.84.009 1.709.21 2.353l.079.374c.101.19.328.33.499.455.688.506 1.64.875 2.81.882.048-.143.174-.215.288-.294.626-.434 1.573-.378 2.075.134.13.133.353.385.262.722-.199.74-1.34 1.073-2.153.695-.21-.098-.441-.459-.63-.481l-1.05-.134c-.462-.12-.895-.31-1.313-.428v.027c.206.205.377.487.551.722.114.153.295.284.447.4.146.113.269.292.42.402a6.1 6.1 0 0 0 1.68.882c1.183.388 2.305-.228 2.994-.695 1.904-1.291 2.998-3.184 2.783-6.47-.196-.126-.377-.304-.578-.429-.558-.347-1.776-.726-2.625-.748v.026c.2.145.38.532.42.83h-.026c-.328-.406-1.542-.594-2.101-.83-.933-.392-1.817-1.036-2.258-1.925h-.053c-.043 1.428-.648 2.38-1.497 2.995zm5.556.097c.428-.013.71.092.873.337.343.519-.036 1.144-.487 1.271-.573.162-1.18-.42-.976-1.037.111-.337.34-.378.59-.57zm-4.182 0c.427-.013.71.092.873.337.344.522-.035 1.144-.488 1.271-.572.162-1.178-.424-.975-1.037.111-.337.34-.378.59-.57zm-.968-6.487c-1.943.856-3.037 2.64-3.117 5.395h.546c.21-2.082 1.362-3.816 2.857-4.601.417-.22.845-.315 1.35-.45.67-.18 2.03-.29 2.806-.106.498.119.994.205 1.428.397 1.764.777 2.92 2.479 3.195 4.76h.546c-.027-2.52-1.12-4.466-2.832-5.263a9.407 9.407 0 0 0-1.428-.502l-.572-.08C8.937.744 7.802.658 7.142.804c-.164.01-.328.018-.493.027-.68.159-1.322.25-1.896.502z"/>
</svg>
