<svg xmlns="http://www.w3.org/2000/svg" viewBox="0 0 16 16">
  <path d="M3.128 6.257a3.02 3.02 0 0 1-1.236-.254A3.168 3.168 0 0 1 .9 5.322c-.28-.286-.5-.618-.66-.996A3.041 3.041 0 0 1 0 3.128c0-.437.082-.844.245-1.223A3.15 3.15 0 0 1 .913.913 3.137 3.137 0 0 1 3.128 0c.426 0 .828.079 1.206.236.379.157.711.376.996.655a3.109 3.109 0 0 1 .927 2.237v2.106h3.486V3.128A3.087 3.087 0 0 1 10.67.891c.285-.28.617-.498.996-.655.378-.157.78-.236 1.206-.236a3.137 3.137 0 0 1 2.215.913c.282.283.505.613.668.992.163.379.245.786.245 1.223 0 .42-.08.819-.24 1.198-.16.378-.38.71-.66.996-.28.285-.61.512-.992.681a3.02 3.02 0 0 1-1.236.254h-2.106v3.486h2.106c.442 0 .855.085 1.236.254.382.169.712.396.992.681.28.286.5.618.66.996.16.38.24.778.24 1.198 0 .437-.082.844-.245 1.223a3.15 3.15 0 0 1-.668.992 3.137 3.137 0 0 1-2.215.913c-.426 0-.828-.079-1.206-.236a3.118 3.118 0 0 1-.996-.655 3.109 3.109 0 0 1-.927-2.237v-2.106H6.257v2.106a3.087 3.087 0 0 1-.927 2.237c-.285.28-.617.498-.996.655-.378.157-.78.236-1.206.236a3.137 3.137 0 0 1-2.215-.913 3.15 3.15 0 0 1-.668-.992A3.059 3.059 0 0 1 0 12.872c0-.42.08-.819.24-1.198.16-.378.38-.71.66-.996.28-.285.61-.512.992-.681a3.02 3.02 0 0 1 1.236-.254h2.106V6.257H3.128zm2.106-1.023V3.128a2.097 2.097 0 0 0-.607-1.49c-.19-.189-.412-.339-.669-.45a2.071 2.071 0 0 0-.83-.166c-.29 0-.562.056-.812.166-.25.111-.47.261-.66.45a2.097 2.097 0 0 0-.607 1.49c0 .297.053.574.161.83a2.068 2.068 0 0 0 1.918 1.276h2.106zm-2.106 5.532c-.29 0-.562.054-.812.161a2.068 2.068 0 0 0-1.105 1.114 2.12 2.12 0 0 0-.162.83 2.097 2.097 0 0 0 1.267 1.94c.25.111.521.167.812.167.297 0 .574-.056.83-.166a2.068 2.068 0 0 0 1.114-1.119c.108-.256.162-.53.162-.821v-2.106H3.128zm9.744-5.532a2.08 2.08 0 0 0 1.472-.607c.19-.19.338-.412.446-.669a2.12 2.12 0 0 0 .161-.83 2.097 2.097 0 0 0-1.271-1.94 1.997 1.997 0 0 0-.808-.166c-.297 0-.574.056-.83.166a2.068 2.068 0 0 0-1.114 1.119c-.108.256-.162.53-.162.821v2.106h2.106zm-2.106 5.532v2.106a2.097 2.097 0 0 0 .607 1.49c.19.189.412.339.669.45.256.11.533.166.83.166.285 0 .555-.056.808-.166.253-.111.475-.261.664-.45a2.097 2.097 0 0 0 .607-1.49 2.12 2.12 0 0 0-.161-.83 2.068 2.068 0 0 0-1.918-1.276h-2.106zm-1.023-4.51H6.257v3.487h3.486V6.257z"/>
</svg>
