<svg xmlns="http://www.w3.org/2000/svg" width="32" height="32" viewBox="0 0 32 32">
  <path d="M28.82 2.928h-2.981V0h-2.982v7.53h-2.981V2.927h-8.348V0H8.745v7.53H5.764V2.927H2.981C1.391 2.928 0 4.392 0 6.065v22.798C0 30.536 1.391 32 2.981 32H29.02C30.609 32 32 30.536 32 28.863V6.065c-.199-1.673-1.59-3.137-3.18-3.137zm-18.683 24.47H4.373v-6.065h5.764V27.4zm0-9.202H4.373v-6.065h5.764v6.065zm8.745 9.203h-5.963v-6.066h5.764V27.4h.199zm0-9.203h-5.963v-6.065h5.764v6.065h.199zm8.547 0h-5.764v-6.065h5.764v6.065z"/>
</svg>
