<svg xmlns="http://www.w3.org/2000/svg" width="32" height="32" viewBox="0 0 32 32">
  <path d="M32 19.2v-6.4h-3.6c-.4-1.6-1-2.8-1.8-4.2l2.2-2.2-3.2-3.2-2.2 2.2C22 4.6 20.6 4 19.2 3.6V0h-6.4v3.6c-1.4.4-2.8 1-4.2 1.8L6.4 3.2 3.2 6.4l2.2 2.2C4.6 10 4 11.2 3.6 12.8H0v6.4h3.6c.4 1.4 1 2.8 1.8 4l-2.2 2.2 3.2 3.2 2.2-2.2c1.4 1 2.8 1.6 4.2 2V32h6.4v-3.6c1.4-.4 2.8-1 4.2-1.8l2.2 2.2 3.2-3.2-2.2-2.2c.8-1.2 1.4-2.6 1.8-4.2H32zm-16 3.388c-3.18 0-5.96-2.813-5.96-6.431S12.621 9.725 16 9.725s5.96 2.814 5.96 6.432c0 3.618-2.78 6.431-5.96 6.431z"/>
</svg>
