<svg xmlns="http://www.w3.org/2000/svg" width="32" height="32" viewBox="0 0 32 32">
  <path d="M3.78 5.664A19.291 19.291 0 0 0 8.349 8.69a34.866 34.866 0 0 0-.739 6.474H5.39v.057H.415a.792.792 0 0 0-.402.109A15.906 15.906 0 0 1 3.78 5.664zm24.538.188a15.902 15.902 0 0 1 3.605 9.369h-5.168v-.057h-2.354c-.053-2.249-.3-4.391-.712-6.347a19.22 19.22 0 0 0 4.63-2.965zM9.666 9.25a33.854 33.854 0 0 0-.639 5.913h13.535a34.037 34.037 0 0 0-.59-5.671 18.2 18.2 0 0 1-5.816.952 18.21 18.21 0 0 1-6.49-1.194zm.465-1.94C11.367 2.898 13.493 0 15.795 0c2.344 0 4.505 3.004 5.73 7.552a16.48 16.48 0 0 1-5.369.897c-2.09 0-4.122-.393-6.025-1.138zM5.117 4.266a15.94 15.94 0 0 1 6.851-3.75C10.674 1.982 9.6 4.137 8.84 6.74a17.467 17.467 0 0 1-3.723-2.475zm16.71 18.944c.427-1.95.69-4.132.737-6.45H9.026c.049 2.413.331 4.68.79 6.69a16.012 16.012 0 0 1 6.302-1.296c1.97 0 3.893.364 5.709 1.056zm-.494 1.913C20.082 29.291 18.02 32 15.795 32c-2.184 0-4.209-2.608-5.466-6.641a14.466 14.466 0 0 1 11.004-.235zm6.298 1.775a18.76 18.76 0 0 0-1.302-1.123 17.291 17.291 0 0 0-2.773-1.863c.495-2.132.792-4.506.846-7.01h7.513a15.915 15.915 0 0 1-4.284 9.996zm-23.18.148a15.918 15.918 0 0 1-4.43-10.25.792.792 0 0 0 .394.106H7.61c.056 2.563.365 4.99.881 7.16-.267.15-.532.309-.793.475a18.286 18.286 0 0 0-3.246 2.509zm21.542.902c.09.082.18.165.27.25a15.93 15.93 0 0 1-6.021 3.18c1.122-1.355 2.069-3.239 2.775-5.484a16.157 16.157 0 0 1 2.976 2.054zM7.978 26.633c.343-.226.693-.438 1.05-.634.706 2.212 1.649 4.068 2.762 5.404a15.922 15.922 0 0 1-5.908-3.037 16.446 16.446 0 0 1 2.096-1.733zM23.12 6.568c-.752-2.513-1.8-4.596-3.056-6.029a15.937 15.937 0 0 1 6.606 3.585 17.118 17.118 0 0 1-3.55 2.444z"/>
</svg>
