<svg xmlns="http://www.w3.org/2000/svg" width="32" height="32" viewBox="0 0 32 32">
  <path d="M21.571 14.4H10.43V8c0-2.646 2.5-4.8 5.571-4.8 3.072 0 5.571 2.154 5.571 4.8v6.4zM16 25.6c-1.538 0-2.786-1.074-2.786-2.4 0-1.325 1.248-2.4 2.786-2.4s2.786 1.075 2.786 2.4c0 1.326-1.248 2.4-2.786 2.4zm9.286-11.2V8c0-4.411-4.168-8-9.286-8-5.122 0-9.286 3.589-9.286 8v6.4C4.666 14.4 3 15.834 3 17.6v11.2C3 30.565 4.666 32 6.714 32h18.572C27.334 32 29 30.565 29 28.8V17.6c0-1.766-1.666-3.2-3.714-3.2z"/>
</svg>
