<svg xmlns="http://www.w3.org/2000/svg" viewBox="0 0 16 16">
  <path d="M7 12.981h2v-2.02H7v2.02zm-3.999 0h2v-2.02H3v2.02zm8-4.029H13v-2.02h-2v2.02zm-4 0h2v-2.02H7v2.02zm-4 0h2v-2.02H3v2.02zm8.769-6.66c0-.112-.127-.21-.27-.21h-.537c-.144 0-.27.098-.27.21v2.556c0 .11.126.209.27.209h.536c.144 0 .27-.099.27-.21V2.292zm-6.462 0c0-.112-.126-.21-.27-.21h-.537c-.144 0-.27.098-.27.21v2.556c0 .11.126.209.27.209h.537c.144 0 .27-.099.27-.21V2.292zM15 13.918c0 .59-.487 1.081-1.076 1.081H2.077C1.488 15 1 14.51 1 13.919V4.246c0-.592.488-1.082 1.077-1.082h1.077v-.811C3.154 1.609 3.761 1 4.501 1h.537c.74 0 1.348.609 1.348 1.353v.81h3.23v-.81c0-.744.606-1.353 1.347-1.353h.536c.741 0 1.347.609 1.347 1.353v.81h1.078c.589 0 1.076.49 1.076 1.083v9.673z"/>
</svg>
