<svg xmlns="http://www.w3.org/2000/svg" viewBox="0 0 16 16">
  <path d="M9.19 9.008c-.01.275-.072.612-.14.75-.067.137-.622.25-.896.25h-.189c-.274 0-.614-.05-.752-.113-.14-.062-.269-.612-.277-.887l-.12-4c-.008-.276.032-.613.09-.75.058-.138.605-.25.88-.25h.584c.275 0 .616.045.758.1.14.055.216.624.207.9l-.146 4zm-.19 3c0 .274-.05.612-.113.75-.062.137-.612.25-.886.25-.276 0-.613-.05-.75-.113-.139-.062-.25-.613-.25-.887 0-.275.05-.613.111-.75.063-.138.612-.25.889-.25.274 0 .612.05.75.112.136.062.25.613.25.888zm5.832 1.292c-.28-.562-.567-1.12-.85-1.679-1.683-3.315-3.366-6.63-5.046-9.947-.204-.402-.49-.667-.925-.674-.423-.007-.724.234-.924.627-1.982 3.906-3.965 7.812-5.94 11.724a1.395 1.395 0 0 0-.145.663c.03.595.476.984 1.084.984 1.97.003 3.942.001 5.913.001 1.962 0 3.926.002 5.89 0 .928-.002 1.38-.819.944-1.699z"/>
</svg>
