<svg xmlns="http://www.w3.org/2000/svg" viewBox="0 0 16 16">
  <path d="M14.832 13.3c.438.88-.016 1.697-.944 1.698C11.925 15.001 9.962 15 8 15c-1.973 0-3.944.002-5.914 0-.608 0-1.054-.39-1.084-.985a1.395 1.395 0 0 1 .145-.663C3.123 9.44 5.104 5.533 7.088 1.627c.2-.393.5-.634.925-.627.433.007.72.272.923.674 1.68 3.317 3.364 6.632 5.046 9.947.284.56.57 1.117.851 1.68zm-6.332.2c.275 0 .5-.225.5-.5v-1c0-.275-.225-.5-.5-.5h-1a.5.5 0 0 0-.5.5v1a.5.5 0 0 0 .5.5h1zm.065-3c.268 0 .52-.249.507-.5l.175-5c.032-.299-.203-.5-.472-.5h-1.55a.48.48 0 0 0-.475.5l.148 5c.008.275.235.5.504.5h1.163z"/>
</svg>
