<svg xmlns="http://www.w3.org/2000/svg" viewBox="0 0 16 16">
  <path d="M12.54 13.34a7.007 7.007 0 0 1-2.594 1.39c.434-.64.793-1.495 1.057-2.497a6.535 6.535 0 0 1 1.537 1.108zm-6.602-1.438A6.525 6.525 0 0 1 8 11.57c.72 0 1.414.117 2.062.332C9.59 13.778 8.801 15.003 8 15.003c-.8 0-1.59-1.225-2.062-3.1zM3.46 13.341c.453-.44.97-.814 1.537-1.108.264 1.002.623 1.856 1.057 2.498a7.007 7.007 0 0 1-2.594-1.39zm9.797-.703a7.536 7.536 0 0 0-2.028-1.413c.155-.843.25-1.762.274-2.725H15a6.962 6.962 0 0 1-1.743 4.138zm-7.53-1.79A16.764 16.764 0 0 1 5.501 8.5h4.998a16.764 16.764 0 0 1-.226 2.349A7.532 7.532 0 0 0 8 10.5c-.792 0-1.556.122-2.273.349zm-2.984 1.79A6.962 6.962 0 0 1 1 8.5h3.497c.025.963.119 1.882.274 2.725a7.536 7.536 0 0 0-2.028 1.413zM13.257 3.36A6.962 6.962 0 0 1 15 7.498h-3.497a17.615 17.615 0 0 0-.274-2.725 7.536 7.536 0 0 0 2.028-1.413zm-7.53 1.79c.717.226 1.48.349 2.273.349.792 0 1.556-.123 2.273-.349.123.725.203 1.516.226 2.349H5.501c.023-.833.103-1.624.226-2.349zM2.743 3.36a7.536 7.536 0 0 0 2.028 1.413c-.155.843-.25 1.762-.274 2.725H1A6.962 6.962 0 0 1 2.743 3.36zm9.797-.698c-.453.44-.97.814-1.537 1.108-.264-1.001-.623-1.856-1.057-2.497a7.007 7.007 0 0 1 2.594 1.39zm-6.602 1.44C6.41 2.225 7.199 1 8 1c.8 0 1.59 1.226 2.062 3.101A6.525 6.525 0 0 1 8 4.433c-.72 0-1.414-.116-2.062-.332zM3.46 2.661a7.007 7.007 0 0 1 2.594-1.39c-.434.642-.793 1.497-1.057 2.498A6.535 6.535 0 0 1 3.46 2.662z"/>
</svg>
