<svg xmlns="http://www.w3.org/2000/svg" viewBox="0 0 16 16">
  <path d="M6.284 6.594a2.73 2.73 0 0 1-.305.225l.183.963-.566.229-.539-.819a2.736 2.736 0 0 1-1.145-.01l-.552.811-.562-.237.198-.961c-.33-.217-.6-.496-.804-.816l-.963.183L1 5.596l.818-.54a2.735 2.735 0 0 1 .01-1.145l-.81-.552.236-.561.961.198c.217-.33.496-.6.816-.804l-.183-.963L3.414 1l.54.818a2.736 2.736 0 0 1 1.145.01l.552-.81.562.236-.198.961c.329.217.6.496.804.816l.963-.183.229.566-.819.538c.077.372.076.762-.01 1.147l.811.552-.237.562-.806-.166 1.023.715a3.74 3.74 0 0 1 1.134-.471l.238-1.285h1.247l.243 1.284c.406.096.789.256 1.133.472l1.088-.766.881.883-.757 1.094c.217.347.378.732.473 1.142L15 9.344v1.247l-1.347.235c-.094.41-.256.794-.472 1.141l.757 1.088-.88.882-1.089-.758a3.773 3.773 0 0 1-1.142.474l-.235 1.346H9.345l-.229-1.346a3.776 3.776 0 0 1-1.142-.473l-1.093.758-.884-.882.766-1.088a3.74 3.74 0 0 1-.471-1.133l-1.286-.244V9.344l1.285-.237c.095-.406.256-.789.47-1.134L5.998 6.88l.287-.286zm.307-.307l.26-.26-.056-.012a2.747 2.747 0 0 1-.204.272zm3.415 5.598a1.881 1.881 0 1 0 0-3.763 1.881 1.881 0 0 0 0 3.763zM5.888 5.091a1.501 1.501 0 1 0-2.764-1.172A1.501 1.501 0 0 0 5.888 5.09z"/>
</svg>
