<svg xmlns="http://www.w3.org/2000/svg" viewBox="0 0 16 16">
  <path d="M11.484 6.985a3.017 3.017 0 0 1-3.498-2.974A3.017 3.017 0 0 1 11.01 1a3.017 3.017 0 0 1 3.022 3.011 3.015 3.015 0 0 1-2.306 2.926L15 10.235v3.761c0 .555-.451 1.004-1.008 1.004H2.008C1.45 15 1 14.55 1 13.996v-3.761L4.933 5.47 8 8.346l3.484-1.36zM5.12 8.403l-2.106 2.551v2.039h9.97V11.06l-1.793-1.805-3.644 1.424L5.12 8.403zm5.888-3.388c.556 0 1.007-.45 1.007-1.004s-.45-1.004-1.007-1.004c-.557 0-1.008.45-1.008 1.004s.451 1.004 1.008 1.004z"/>
</svg>
