<svg xmlns="http://www.w3.org/2000/svg" viewBox="0 0 16 16">
  <path d="M4.142 4.22A1.01 1.01 0 0 1 5 3.75c.553 0 1 .434 1 .97v6.562c0 .34-.185.654-.485.83a1.019 1.019 0 0 1-1.373-.333L3 9.936h-.02C1.885 9.931 1 9.07 1 8.01V8c0-1.057.877-1.92 1.971-1.935H3L4.142 4.22zm4.298 8.678a1 1 0 1 1-.88-1.796C8.515 10.635 9 9.662 9 8s-.486-2.635-1.44-3.102a1 1 0 1 1 .88-1.796C10.153 3.94 11 5.634 11 8c0 2.366-.847 4.06-2.56 4.898zm3.12 1.93a1 1 0 1 1-1.12-1.656C12.156 12.009 13 10.322 13 8c0-2.323-.843-4.01-2.56-5.172a1 1 0 0 1 1.12-1.656C13.844 2.717 15 5.03 15 8c0 2.97-1.157 5.283-3.44 6.828z"/>
</svg>
