<svg xmlns="http://www.w3.org/2000/svg" viewBox="0 0 16 16">
  <path d="M1.977 13.037A3.244 3.244 0 0 1 1 10.71c0-.878.347-1.705.977-2.326l5.12-5.05A4.61 4.61 0 0 1 10.356 2c1.231 0 2.39.473 3.26 1.333C14.52 4.223 15 5.366 15 6.581c0 1.215-.48 2.358-1.351 3.218L9.816 13.58a.754.754 0 0 1-1.03 0 .714.714 0 0 1 0-1.016l3.833-3.782c.597-.588.925-1.37.925-2.202a3.07 3.07 0 0 0-.925-2.2 3.18 3.18 0 0 0-2.262-.944c-.843 0-1.635.324-2.23.912L3.006 9.4c-.356.35-.55.815-.55 1.31 0 .496.194.961.55 1.312.709.7 1.947.7 2.656 0l5.054-4.986a.562.562 0 0 0 0-.807.577.577 0 0 0-.4-.162.56.56 0 0 0-.399.167l-4.817 4.892a.736.736 0 0 1-1.03.014.704.704 0 0 1-.22-.505.707.707 0 0 1 .205-.51l4.819-4.892a2.02 2.02 0 0 1 1.416-.603c.545.01 1.048.192 1.435.563.396.39.615.904.615 1.445 0 .535-.212 1.036-.595 1.414l-5.053 4.985A3.347 3.347 0 0 1 4.335 14c-.854 0-1.708-.32-2.358-.963z"/>
</svg>
