<svg xmlns="http://www.w3.org/2000/svg" viewBox="0 0 16 16">
  <path d="M9.714 11.083C9.714 13.8 7.54 16 4.858 16 2.174 16 0 13.799 0 11.083c0-2.715 2.174-4.918 4.858-4.918 2.682 0 4.856 2.203 4.856 4.918zM10.801 1C13.672 1 16 3.357 16 6.263c0 2.695-2.01 4.891-4.588 5.2.012-.164.025-.327.025-.495 0-.32-.031-.63-.076-.939a3.805 3.805 0 0 0 3.218-3.766c0-2.109-1.696-3.824-3.778-3.824-1.595 0-2.955 1.01-3.507 2.428a6.277 6.277 0 0 0-1.371-.365C6.64 2.466 8.543 1 10.8 1zM5.174 12.706a.48.48 0 0 1-.368.14c-.214 0-.379-.068-.495-.206-.116-.14-.175-.34-.175-.606H2.974c0 .482.134.87.402 1.164.268.294.653.47 1.154.522v.705h.548v-.7c.43-.043.77-.19 1.02-.44.249-.253.373-.577.373-.975 0-.235-.038-.437-.116-.604a1.39 1.39 0 0 0-.324-.44 2.275 2.275 0 0 0-.493-.337 8.98 8.98 0 0 0-.605-.287c-.213-.091-.369-.187-.466-.29a.563.563 0 0 1-.145-.41c0-.17.043-.303.127-.4a.443.443 0 0 1 .353-.144c.17 0 .302.065.393.195.093.13.139.317.139.559H6.5c0-.442-.122-.808-.362-1.095-.24-.287-.57-.462-.99-.524v-.751h-.55v.736c-.437.042-.786.19-1.048.444-.262.257-.394.58-.394.974 0 .235.038.435.112.6.072.165.178.31.316.436s.304.237.495.332c.19.096.398.19.623.283.225.093.383.193.472.297.09.105.135.248.135.433a.537.537 0 0 1-.135.389zM11.482 7.9a.5.5 0 0 1-.286-.09L9.714 6.797V3.807c0-.294.232-.534.518-.534.285 0 .517.24.517.534v2.414l1.02.698a.546.546 0 0 1 .144.742.512.512 0 0 1-.43.24z"/>
</svg>
