<svg xmlns="http://www.w3.org/2000/svg" viewBox="0 0 16 16">
  <path d="M5 15A5 5 0 1 1 5 5a5 5 0 0 1 0 10zm.496-3.433c-.101.093-.24.139-.418.139-.242 0-.43-.068-.561-.203-.132-.136-.2-.333-.2-.593H3c0 .472.152.851.456 1.14.304.287.741.459 1.309.51v.69h.622v-.686c.488-.04.873-.185 1.157-.43.282-.247.423-.564.423-.954 0-.23-.043-.427-.132-.59a1.393 1.393 0 0 0-.367-.43 2.631 2.631 0 0 0-.559-.33c-.215-.098-.443-.19-.687-.281-.242-.09-.418-.184-.528-.285a.508.508 0 0 1-.165-.4c0-.166.048-.297.145-.392.095-.094.228-.141.4-.141.193 0 .342.064.446.191.105.127.157.31.157.547H7c0-.433-.138-.79-.41-1.071-.273-.281-.647-.453-1.124-.513V6.75h-.624v.72c-.495.041-.892.186-1.188.435a1.192 1.192 0 0 0-.447.952c0 .23.043.426.126.588.083.161.203.304.359.427.157.122.344.23.561.324.215.094.452.186.707.277.256.091.435.189.536.29.103.103.153.244.153.424 0 .161-.05.289-.153.38zm6.772-3.939a.5.5 0 0 1-.286-.089L10.5 6.524v-2.99c0-.294.232-.534.518-.534.285 0 .517.24.517.535v2.413l1.02.698a.546.546 0 0 1 .144.742.512.512 0 0 1-.43.24zM7.308 4.46a5.954 5.954 0 0 0-.956-.307A5.002 5.002 0 0 1 16 6a5 5 0 0 1-5.083 5A6.04 6.04 0 0 0 11 10a4 4 0 1 0-3.693-5.54z"/>
</svg>
