<svg xmlns="http://www.w3.org/2000/svg" viewBox="0 0 16 16">
  <path d="M8.646 9c-.269.3-.497.636-.678 1H1.5c-.275 0-.5-.245-.5-.545v-2.91c0-.3.225-.545.5-.545h13c.276 0 .5.246.5.546v2.1A4.483 4.483 0 0 0 12 7.5a4.483 4.483 0 0 0-3 1.146V7H3v2h5.646zm-.678 5c.18.364.41.7.678 1H1.5c-.275 0-.5-.245-.5-.545v-2.91c0-.3.225-.545.5-.545h6.112a4.515 4.515 0 0 0-.112 1H3v2h4.968zM1.5 1h13c.276 0 .5.246.5.546v2.909c0 .3-.224.545-.5.545h-13c-.275 0-.5-.245-.5-.545v-2.91c0-.3.225-.545.5-.545zm12.854 10.354l.553.09a.114.114 0 0 1 .093.108v.734a.103.103 0 0 1-.093.101l-.508.04a2.427 2.427 0 0 1-.296.794l.288.387a.113.113 0 0 1-.01.142l-.572.571a.112.112 0 0 1-.141.01l-.37-.28c-.23.145-.486.253-.76.314l-.07.542a.11.11 0 0 1-.105.093h-.755a.103.103 0 0 1-.1-.093l-.04-.542a2.427 2.427 0 0 1-.776-.324l-.393.29a.113.113 0 0 1-.141-.01l-.572-.571a.108.108 0 0 1-.007-.14l.318-.398a2.408 2.408 0 0 1-.278-.716l-.526-.063A.11.11 0 0 1 9 12.328v-.808c0-.051.042-.097.093-.1l.553-.044c.063-.245.163-.475.295-.684l-.362-.454a.109.109 0 0 1 .007-.14l.572-.57a.11.11 0 0 1 .14-.01l.477.367c.203-.118.424-.208.66-.265l.043-.527A.104.104 0 0 1 11.58 9h.807c.052 0 .097.042.1.094l.037.514c.247.054.48.146.692.268l.453-.357a.109.109 0 0 1 .14.008l.572.571a.106.106 0 0 1 .006.139l-.346.416c.14.213.245.45.313.701zm-3.289.634a.939.939 0 0 0 1.875 0 .939.939 0 0 0-.937-.937.939.939 0 0 0-.938.937zm-.064-8.956c.02.534.491.979 1.02.967A1.02 1.02 0 0 0 13 2.993a1.015 1.015 0 0 0-1.046-.992A1.02 1.02 0 0 0 11 3.032zM3 4h6V2H3v2z"/>
</svg>
