<svg xmlns="http://www.w3.org/2000/svg" viewBox="0 0 16 16">
  <path d="M1.5 11h13c.276 0 .5.246.5.546v2.909c0 .3-.224.545-.5.545h-13c-.275 0-.5-.245-.5-.545v-2.91c0-.3.225-.545.5-.545zm0-5h13c.276 0 .5.246.5.546v2.909c0 .3-.224.545-.5.545h-13c-.275 0-.5-.245-.5-.545v-2.91c0-.3.225-.545.5-.545zm0-5h13c.276 0 .5.246.5.546v2.909c0 .3-.224.545-.5.545h-13c-.275 0-.5-.245-.5-.545v-2.91c0-.3.225-.545.5-.545zM11 13.032c.022.534.493.98 1.02.968.533-.012.983-.474.98-1.007a1.016 1.016 0 0 0-1.046-.992A1.02 1.02 0 0 0 11 13.032zm0-5c.022.534.493.98 1.02.968.533-.012.983-.474.98-1.007a1.016 1.016 0 0 0-1.046-.992A1.02 1.02 0 0 0 11 8.032zm0-5c.022.534.492.979 1.02.967A1.02 1.02 0 0 0 13 2.993a1.015 1.015 0 0 0-1.046-.992A1.02 1.02 0 0 0 11 3.032zM3 14h6v-2H3v2zm0-5h6V7H3v2zm0-5h6V2H3v2z"/>
</svg>
