<svg xmlns="http://www.w3.org/2000/svg" viewBox="0 0 16 16">
  <path d="M15.5 10.727c.276 0 .5.246.5.546v2.182c0 .3-.224.545-.5.545H.5c-.275 0-.5-.246-.5-.545v-2.182c0-.3.225-.546.5-.546h15zm0-4.363c.276 0 .5.245.5.546v2.18c0 .3-.224.547-.5.547H.5c-.275 0-.5-.246-.5-.546V6.91c0-.301.225-.546.5-.546h15zM15.5 2c.276 0 .5.246.5.546v2.182c0 .3-.224.545-.5.545H.5c-.275 0-.5-.245-.5-.545V2.546C0 2.246.225 2 .5 2h15zM13.393 13.23c.399-.009.737-.364.735-.773-.002-.426-.37-.783-.785-.762a.776.776 0 0 0-.715.792c.016.41.369.752.765.743zm0-4.397c.399-.01.737-.364.735-.773-.002-.426-.37-.783-.785-.762a.776.776 0 0 0-.715.792c.016.41.369.752.765.743zm0-4.398c.399-.01.737-.364.735-.773-.002-.426-.37-.783-.785-.762a.776.776 0 0 0-.715.792c.016.41.369.752.765.743zm-11.26 8.473h8.534v-1.09H2.134v1.09zm0-4.363h8.534V7.455H2.134v1.09zm0-4.364h8.534V3.09H2.134v1.09z"/>
</svg>
