<svg xmlns="http://www.w3.org/2000/svg" viewBox="0 0 16 16">
  <path d="M1 10.783h14v2.811C15 14.37 14.372 15 13.6 15H2.4c-.773 0-1.4-.63-1.4-1.406v-2.811zm0-.646V5.92h14v4.217H1zm14-4.92H1V2.406C1 1.63 1.628 1 2.4 1h11.2c.773 0 1.4.63 1.4 1.406v2.811zM3.107 13.398h3.36v-1.125h-3.36v1.125zm7.242-1.125a.56.56 0 0 0-.56.562.56.56 0 1 0 1.12 0 .56.56 0 0 0-.56-.562zm1.983 0a.56.56 0 0 0-.56.562.56.56 0 1 0 1.121 0 .561.561 0 0 0-.561-.562zM3.1 8.591h3.36V7.466H3.1v1.125zm7.249-1.125a.56.56 0 0 0-.56.562.561.561 0 1 0 1.12 0 .56.56 0 0 0-.56-.562zm1.983 0a.56.56 0 0 0-.56.562.561.561 0 1 0 1.121 0 .561.561 0 0 0-.561-.562zM3.1 3.728h3.36V2.603H3.1v1.125zm7.249-1.125a.56.56 0 0 0-.56.562.56.56 0 1 0 1.12 0 .56.56 0 0 0-.56-.562zm1.983 0a.56.56 0 0 0-.56.562.56.56 0 1 0 1.121 0 .561.561 0 0 0-.561-.562z"/>
</svg>
