<svg xmlns="http://www.w3.org/2000/svg" viewBox="0 0 16 16">
  <path d="M7.5 14l-.415.829a1.5 1.5 0 0 0-.073.171H1.5c-.275 0-.5-.245-.5-.545v-2.91c0-.3.225-.545.5-.545H9l-.5 1H3v2h4.5zm7-4L13.34 7.683a1.5 1.5 0 0 0-2.683 0L9.499 10h-8c-.274 0-.5-.245-.5-.545v-2.91c0-.3.226-.545.5-.545h13c.277 0 .5.246.5.546v2.909c0 .3-.223.545-.5.545zm-13-9h13c.276 0 .5.246.5.546v2.909c0 .3-.224.545-.5.545h-13c-.275 0-.5-.245-.5-.545v-2.91c0-.3.225-.545.5-.545zm13.428 13.272c.187.377-.007.727-.404.727-.842.002-1.683 0-2.524 0-.845 0-1.69.002-2.535 0-.26 0-.452-.166-.464-.421a.598.598 0 0 1 .062-.285c.846-1.676 1.696-3.35 2.545-5.024.086-.169.215-.272.397-.269.186.003.308.117.396.289.72 1.422 1.441 2.842 2.162 4.263.122.24.245.479.365.72zm-2.714.085a.215.215 0 0 0 .215-.214v-.429a.215.215 0 0 0-.215-.214h-.428a.215.215 0 0 0-.215.214v.429c0 .118.096.214.215.214h.428zm.028-1.285c.115 0 .223-.107.217-.215l.075-2.143c.014-.128-.086-.214-.202-.214h-.664a.206.206 0 0 0-.204.214l.064 2.143a.22.22 0 0 0 .216.215h.498zm-1.241-10.04c.02.534.491.979 1.02.967A1.02 1.02 0 0 0 13 2.993a1.015 1.015 0 0 0-1.046-.992A1.02 1.02 0 0 0 11 3.032zM3 9h6V7H3v2zm0-5h6V2H3v2z"/>
</svg>
