<svg xmlns="http://www.w3.org/2000/svg" viewBox="0 0 16 16">
  <path d="M12.334 8.048c.189 3.135-.773 4.94-2.448 6.172-.606.446-1.593 1.033-2.633.663-.26-.093-1.155-.52-1.74-1.045-.652-.588-.985-1.276-.985-1.276.179.073.68.25 1.158.362.482.114.996.17 1.071.179.177.356.613.609 1.124.609.667 0 1.208-.43 1.208-.96s-.54-.96-1.208-.96c-.493 0-.915.235-1.104.57a4.37 4.37 0 0 1-1.847-.426c-.656-.32-1.08-.802-1.095-.853A7.437 7.437 0 0 1 3.6 9.8c-.056-.677-.019-1.32-.019-1.32s.608.075 1.554-.986c.854-.956.831-2.565.831-2.565.389.848 3.809 2.695 6.035 2.426.238-.03.293.664.333.692zm2.243.024c.258.242.423.596.423.99v1.577c0 .724-.554 1.317-1.232 1.317h-.544-.031v-.003a.336.336 0 0 1-.292-.342c0-.044.008-.087.023-.126l.001-.01c.209-.75.33-1.622.33-2.634 0-.26-.008-.491-.024-.74v-.005-.006c0-.19.143-.344.32-.345h.216c.037 0 .072.002.108.006-.148-1.594-.627-2.95-1.408-3.964-1.04-1.353-2.594-2.068-4.493-2.068-1.802 0-3.313.713-4.37 2.064C2.79 4.82 2.29 6.178 2.134 7.75c.033-.003.065-.005.098-.005h.069c.176 0 .319.15.322.338l.001.003v.004c-.018.245-.027.495-.027.75a8.117 8.117 0 0 0 .449 2.702l.005.015a.094.094 0 0 1 0 .051l.001.003a.335.335 0 0 1-.306.343l-.002.002h-.512C1.554 11.956 1 11.363 1 10.64V9.062c0-.398.168-.755.43-.997.122-1.879.687-3.507 1.654-4.742C4.274 1.803 5.965 1 7.974 1c2.108 0 3.843.806 5.016 2.332.93 1.209 1.473 2.837 1.587 4.74zM9.75 9.91c.434 0 .785-.375.785-.838 0-.463-.351-.838-.785-.838-.433 0-.784.375-.784.838 0 .463.351.838.784.838zm-3.584 0c.433 0 .784-.375.784-.838 0-.463-.351-.838-.784-.838-.433 0-.784.375-.784.838 0 .463.35.838.784.838z"/>
</svg>
