<svg xmlns="http://www.w3.org/2000/svg" viewBox="0 0 16 16">
  <path d="M16 7.779c0 .83-.604 1.523-1.422 1.737-.086.338-.189.671-.327.994a6.793 6.793 0 0 1-1.467 2.172 6.78 6.78 0 0 1-2.154 1.448c-.118.05-.24.087-.36.13-.12.424-.489.74-.946.74-.553 0-1-.453-1-1.01 0-.56.447-1.012 1-1.012.28 0 .532.118.713.306.068-.026.137-.045.204-.074a5.816 5.816 0 0 0 3.09-3.089 5.833 5.833 0 0 0 .464-2.292 5.831 5.831 0 0 0-3.555-5.382 5.773 5.773 0 0 0-4.462 0 5.76 5.76 0 0 0-1.837 1.235 5.831 5.831 0 0 0-1.717 4.147l.002.138c.008.33.047.66.118 1.014v.013c.037.154.106.403.178.5 0 0-.053.036-.266.073l-.017.002.001.001c-.006 0-.213.021-.256.021l-.04-.001C.87 9.59 0 8.78 0 7.779c0-.849.627-1.553 1.47-1.751.081-.3.175-.595.297-.883a6.792 6.792 0 0 1 1.468-2.17 6.758 6.758 0 0 1 2.154-1.449 6.786 6.786 0 0 1 5.241 0 6.769 6.769 0 0 1 2.154 1.449 6.789 6.789 0 0 1 1.467 2.17c.123.29.218.587.299.888.833.205 1.45.905 1.45 1.746zm-3.419-.11a4.571 4.571 0 1 1-9.143-.002 4.571 4.571 0 0 1 9.143.002zm-4.572 2.61c2.503 0 2.503-2.268 2.503-2.268s-2.404 2.191-5.005 0c0 0 0 2.267 2.502 2.267zm1.866-3.687c.438 0 .794-.374.794-.835 0-.462-.356-.837-.794-.837-.438 0-.794.375-.794.837 0 .461.356.835.794.835zM6.181 4.92c-.438 0-.794.375-.794.837 0 .461.356.835.794.835.439 0 .794-.374.794-.835 0-.462-.355-.837-.794-.837z"/>
</svg>
