<svg xmlns="http://www.w3.org/2000/svg" viewBox="0 0 16 16">
  <path d="M14.914 11.676a.106.106 0 0 1 .086.101v.686c0 .048-.04.091-.087.095l-.476.037a2.239 2.239 0 0 1-.276.742l.27.362a.106.106 0 0 1-.01.133l-.535.533a.105.105 0 0 1-.132.009l-.346-.262a2.272 2.272 0 0 1-.712.295l-.064.506a.104.104 0 0 1-.1.087h-.706a.097.097 0 0 1-.094-.087l-.037-.507a2.231 2.231 0 0 1-.726-.303l-.368.272a.105.105 0 0 1-.132-.01l-.535-.533a.1.1 0 0 1-.007-.131l.297-.372a2.279 2.279 0 0 1-.26-.669l-.493-.059a.102.102 0 0 1-.086-.099v-.754c0-.049.04-.091.087-.095l.517-.04c.06-.229.153-.444.277-.639l-.339-.425a.1.1 0 0 1 .007-.131l.535-.533a.103.103 0 0 1 .131-.009l.446.343a2.25 2.25 0 0 1 .617-.247l.042-.493a.096.096 0 0 1 .095-.087h.756c.048 0 .09.039.093.087l.034.481c.231.051.448.137.648.251l.424-.334a.102.102 0 0 1 .131.008l.534.533a.099.099 0 0 1 .006.13l-.323.389c.13.199.23.42.292.655l.519.084zm-6.726.388c0 .212.03.416.062.62H2.17c-.645 0-1.17-.525-1.17-1.169V9.178h8.43a3.98 3.98 0 0 0-1.242 2.886zm4.005-4c-.716 0-1.377.202-1.958.53H1V5.089h11.7v3.026c-.168-.022-.334-.051-.507-.051zm.507-3.559H1V2.168A1.17 1.17 0 0 1 2.17 1h9.36c.645 0 1.17.524 1.17 1.168v2.337zm-2.23 1.869a.467.467 0 1 0-.001.934.467.467 0 0 0 0-.934zm-1.657.935a.468.468 0 1 0 .002-.935.468.468 0 0 0-.002.935zm-6.058 0h2.808v-.935H2.755v.935zm9.44 5.752a.878.878 0 0 0 .877-.876.878.878 0 0 0-1.754 0c0 .483.394.876.877.876zM2.76 11.398h2.808v-.935H2.76v.935zm0-8.131h2.808v-.935H2.76v.935zm6.053-.935a.467.467 0 1 0 0 .935.468.468 0 1 0 0-.935zm1.657 0a.467.467 0 1 0-.001.934.467.467 0 0 0 0-.934z"/>
</svg>
