<svg xmlns="http://www.w3.org/2000/svg" viewBox="0 0 16 16">
  <path d="M14.93 14.286c.183.37-.007.713-.395.714h-2.467l-2.478-.001c-.253 0-.441-.164-.454-.413a.598.598 0 0 1 .062-.279c.827-1.642 1.657-3.281 2.487-4.922.084-.165.211-.265.388-.263.181.003.302.114.386.283l2.115 4.176c.119.235.239.469.356.705zm-5.87-3.028l-.706 1.396h-6.19A1.165 1.165 0 0 1 1 11.488v-2.33h9.122l-.269.53-.63 1.244c.002-.009.007-.017.007-.027a.466.466 0 1 0-.465.467.455.455 0 0 0 .294-.114zm3.038-3.636a1.977 1.977 0 0 0-1.657.953H1V5.079h11.627v2.63a1.86 1.86 0 0 0-.53-.087zm.529-3.125H1V2.166C1 1.523 1.521 1 2.163 1h9.302c.642 0 1.162.523 1.162 1.166v2.33zm-.065 8.26l.072-2.007c.014-.12-.083-.2-.193-.2h-.635c-.11 0-.197.09-.194.2l.06 2.008c.003.11.096.201.206.201h.477c.11 0 .213-.1.207-.201zm-.068 1.206v-.403c0-.11-.09-.2-.202-.2h-.4a.2.2 0 0 0-.2.2v.403c0 .11.09.2.2.2h.4c.111 0 .202-.09.202-.2zM9.947 6.826a.465.465 0 1 0 .93.003.465.465 0 0 0-.93-.003zm-1.182.467a.466.466 0 1 0-.001-.932.466.466 0 0 0 0 .932zm-6.02 0h2.79v-.932h-2.79v.933zm-.005 4.079h2.79v-.932H2.74v.932zm0-8.11h2.79v-.933H2.74v.933zm6.025-.933a.465.465 0 1 0-.001.93.465.465 0 0 0 0-.93zm1.647 0a.465.465 0 1 0 0 .93.465.465 0 0 0 0-.93z"/>
</svg>
