<svg xmlns="http://www.w3.org/2000/svg" viewBox="0 0 16 16">
  <path d="M14.3209877,1.925 C15.1937339,1.925 15.9012346,2.55266234 15.9012346,3.32692308 L15.9012346,3.32692308 L15.9012346,12.6730769 C15.9012346,13.4473377 15.1937339,14.075 14.3209877,14.075 L14.3209877,14.075 L1.67901235,14.075 C0.806266074,14.075 0.0987654321,13.4473377 0.0987654321,12.6730769 L0.0987654321,12.6730769 L0.0987654321,3.32692308 C0.0987654321,2.55266234 0.806266074,1.925 1.67901235,1.925 L1.67901235,1.925 Z M14.3817664,2.9375 L1.61823362,2.9375 C1.32452093,2.9375 1.08641975,3.14355077 1.08641975,3.39772727 L1.08641975,3.39772727 L1.08641975,12.6022727 C1.08641975,12.8564492 1.32452093,13.0625 1.61823362,13.0625 L1.61823362,13.0625 L14.3817664,13.0625 C14.6754791,13.0625 14.9135802,12.8564492 14.9135802,12.6022727 L14.9135802,12.6022727 L14.9135802,3.39772727 C14.9135802,3.14355077 14.6754791,2.9375 14.3817664,2.9375 L14.3817664,2.9375 Z M4.77352384,5.03703704 C5.77220738,5.03703704 6.58170474,5.81216876 6.58170474,6.76994417 C6.58170474,7.19249135 6.42234125,7.59457478 6.13494361,7.91051384 L6.06686574,7.97726827 L6.18291452,8.06228815 L6.29795063,8.1551932 L6.39377546,8.239955 L6.48679499,8.3291328 L6.68280502,8.53971463 L6.84791255,8.74898994 C7.04338882,9.0174286 7.20171194,9.31720762 7.32429099,9.65124215 L7.40954528,9.90823651 L7.46141134,10.0969232 L7.49780689,10.2516718 L7.53075218,10.4169046 L7.64120973,11.1604938 L1.925,11.1604938 L2.03232231,10.4343866 L2.08549306,10.1783266 C2.16989209,9.81969718 2.29870746,9.47966351 2.47147878,9.15946536 C2.70468678,8.72571269 2.97907604,8.37974802 3.29842966,8.12096395 L3.46187102,7.99883415 L3.48499074,7.98407211 L3.3953975,7.89205113 C3.2497582,7.72806948 3.13731194,7.53957972 3.06369163,7.33510034 L3.01584429,7.17887586 L2.98308476,7.01745389 L2.96874942,6.88682149 L2.96458913,6.76994417 C2.96458913,5.81233572 3.77466191,5.03703704 4.77352384,5.03703704 Z M4.37095617,8.59928737 C3.96856309,8.73434917 3.62777007,9.05942158 3.33874494,9.59698967 C3.28312664,9.70006777 3.23327796,9.80596332 3.1897883,9.91301411 L3.12939674,10.0742489 L3.08606574,10.212816 L6.47996574,10.212816 L6.42802096,10.0382764 C6.4033844,9.96589884 6.37683649,9.8959478 6.3484803,9.82860894 L6.25809002,9.63461451 L6.18186356,9.49642558 L6.12110517,9.39871902 L6.05918119,9.30839189 L5.93276374,9.14582664 L5.78285898,8.98564388 L5.71528945,8.92161261 C5.28312788,8.52644011 4.87530461,8.43034392 4.37095617,8.59928737 Z M13.315625,8.49382716 C13.4953641,8.49382716 13.6410714,8.71492111 13.6410714,8.98765432 C13.6410714,9.23008384 13.5259446,9.43171197 13.3741244,9.47352526 L13.315625,9.48148148 L8.759375,9.48148148 C8.5796359,9.48148148 8.43392857,9.26038753 8.43392857,8.98765432 C8.43392857,8.7452248 8.54905535,8.54359667 8.70087559,8.50178338 L8.759375,8.49382716 L13.315625,8.49382716 Z M4.77352384,5.98355417 C4.31383137,5.98355417 3.94261036,6.33613037 3.94261036,6.76994417 C3.94261036,7.20398751 4.31406712,7.55705396 4.77352384,7.55705396 C5.23274576,7.55705396 5.60368352,7.20421623 5.60368352,6.76994417 C5.60368352,6.33590169 5.23298146,5.98355417 4.77352384,5.98355417 Z M13.315625,6.51851852 C13.4953641,6.51851852 13.6410714,6.73961247 13.6410714,7.01234568 C13.6410714,7.2547752 13.5259446,7.45640333 13.3741244,7.49821662 L13.315625,7.50617284 L8.759375,7.50617284 C8.5796359,7.50617284 8.43392857,7.28507889 8.43392857,7.01234568 C8.43392857,6.76991616 8.54905535,6.56828803 8.70087559,6.52647474 L8.759375,6.51851852 L13.315625,6.51851852 Z" />
</svg>
