<svg xmlns="http://www.w3.org/2000/svg" viewBox="0 0 16 16">
  <path d="M7.82241729,0.00630234998 C7.07863262,0.0631722164 6.46191561,0.503853842 6.17480937,1.17468745 L6.12041448,1.31551205 L6.29907174,1.2543462 C4.86693113,1.70412166 3.79932216,2.63503457 3.01102551,4.00782053 C2.45332428,4.97909719 2.09868772,6.03952303 1.92835417,7.194212 L1.86056388,7.74494223 L1.792473,8.33426418 C1.78542198,8.39057211 1.77847065,8.44422761 1.77154717,8.49563565 L1.72976584,8.78035434 L1.68520457,9.03057352 L1.63441488,9.26573256 C1.62523931,9.30475069 1.61566055,9.34395128 1.60560673,9.38373933 C1.52170882,9.71655422 1.36753406,9.95957286 1.11499402,10.1491352 C0.869729271,10.3333088 0.65766662,10.5322604 0.478276322,10.7529875 C0.234125544,11.0533687 0.0773786956,11.3970988 0.00904095431,11.7764351 L0,11.8776139 L0,12.2207826 L0.0147311952,12.3496098 C0.089866589,12.6738508 0.181488311,12.937936 0.319785102,13.1881228 L0.393519536,13.3083985 C0.653268238,13.6915244 1.05108843,13.8958667 1.53894845,13.8958667 L5.51399213,13.8934359 L5.51750215,13.9174905 C5.53991578,14.0676223 5.57690922,14.2156548 5.62817767,14.355433 C5.95200659,15.2364139 6.62360115,15.7879119 7.56779898,15.9877637 L7.68597164,16.0001331 L8.31344106,16.0001331 L8.43673482,15.9866552 L8.62432732,15.9397828 C9.60369957,15.6658966 10.2434235,15.0104422 10.4613503,14.0133778 L10.4823835,13.8934359 L14.4505889,13.8960491 C14.9953901,13.8963406 15.4269956,13.6464099 15.6827223,13.1777186 C16.2239489,12.1857791 16.0702137,11.240156 15.240884,10.4564717 C15.1691119,10.3886011 15.0951799,10.3219298 15.0143634,10.251983 L14.7465363,10.0278406 C14.5648775,9.87996949 14.469402,9.69364868 14.3724685,9.3027401 L14.3128831,9.03796997 L14.2727677,8.81639052 L14.2364109,8.56331235 L14.1989216,8.24901649 L14.1157734,7.5091975 L14.0747825,7.22127027 C13.817534,5.58700231 13.2761282,4.22720215 12.3463906,3.07367913 L12.1674589,2.86152545 C11.5590043,2.17237278 10.8303015,1.66391632 9.97860343,1.34915879 L9.87317513,1.31272603 L9.82003244,1.17256021 C9.50829398,0.441774326 8.82410434,-0.00149553284 7.98356539,3.79143844e-06 L7.82241729,0.00630234998 Z M7.97868572,13.5591142 L9.32618774,13.8460736 L9.31131896,13.9065109 C9.16811917,14.3902905 8.85857789,14.6850763 8.33752935,14.8349471 L8.24335703,14.8583253 L7.75487594,14.8583253 L7.80414431,14.8711526 C7.23362135,14.750394 6.88376798,14.4631025 6.69958568,13.9620323 L6.66554452,13.8488597 L7.97868572,13.5591142 Z M7.98565969,1.14137167 C8.38210384,1.14066724 8.66043724,1.32417306 8.78634538,1.66068926 L8.81951075,1.76620322 C8.89423692,2.05452513 9.08895095,2.25832663 9.37610392,2.34905258 C10.2088033,2.61120633 10.8947985,3.09140895 11.4577382,3.78990278 C12.2514229,4.77462532 12.7191851,5.94946146 12.9472837,7.39854347 L12.984371,7.65998767 L13.086658,8.56675381 L13.1270209,8.87525866 L13.1701338,9.1398646 L13.2216657,9.39363805 C13.3840639,10.1254969 13.5677552,10.5399867 14.0256479,10.9127129 L14.2631819,11.1113342 C14.3336772,11.1722626 14.3968583,11.2291808 14.4568309,11.2858933 C14.9109341,11.7150031 14.9728449,12.0958154 14.6808067,12.6310518 L14.6490597,12.6814701 C14.6060694,12.7381744 14.556366,12.7546995 14.4511177,12.7546995 L11.6302212,12.7530275 L11.6511211,12.7491581 L6.59682285,12.7511702 L4.18478766,12.7506819 L4.19435024,12.7520989 L1.53864603,12.7545169 C1.41381846,12.7545169 1.37039712,12.7294148 1.3185563,12.6357321 L1.27302391,12.5457314 C1.22977581,12.4521752 1.19300704,12.3471026 1.15935554,12.2228648 L1.14087907,12.1512486 L1.14087907,11.9385828 L1.13230885,11.9787927 C1.1666255,11.7883042 1.2420913,11.6228153 1.36397953,11.472855 C1.45200348,11.3645477 1.5553958,11.2611164 1.67509041,11.1609775 L1.80025371,11.0618775 C2.26896778,10.71005 2.56657243,10.2409493 2.71225487,9.66304058 L2.77567299,9.39409485 L2.82921333,9.12445659 L2.87677782,8.8329127 L2.92226836,8.49825007 L3.01283634,7.70782836 C3.14022864,6.55223669 3.46239079,5.51385237 4.00080544,4.57616468 C4.65346971,3.43957688 5.49967949,2.70171534 6.64081124,2.34333354 C6.90571616,2.26026739 7.0640896,2.08707495 7.14696497,1.86032026 L7.17795113,1.75996696 C7.26708396,1.41369852 7.52125605,1.19021227 7.86701131,1.14848955 L7.98565969,1.14137167 Z" />
</svg>
