<svg xmlns="http://www.w3.org/2000/svg" viewBox="0 0 16 16">
  <path d="M10.969 0L14 3.031V15c0 .55-.45 1-1 1H3c-.55 0-1-.45-1-1V1c0-.55.45-1 1-1h7.969zM9 6h3V5H9v1zm0 3h3V8H9v1zm-5 3h8v-1H4v1zm1.448-8.978c-.804.101-1.45.723-1.45 1.456 0 .809.782 1.52 1.673 1.52h.754c.352 0 .582.203.584.517a.46.46 0 0 1-.127.338.514.514 0 0 1-.457.148L4 7.002v.996l1.448-.001V9h1.104V7.99a1.53 1.53 0 0 0 1.03-.43c.275-.273.425-.647.423-1.052-.008-.859-.687-1.506-1.58-1.506h-.754c-.329 0-.677-.27-.677-.524 0-.243.335-.48.677-.48H8v-.996H6.552V2H5.448v1.022z"/>
</svg>
