<svg xmlns="http://www.w3.org/2000/svg" viewBox="0 0 16 16">
  <path d="M13,0 C13.8284271,0 14.5,0.7163444 14.5,1.6 L14.5,1.6 L14.5,14.4 C14.5,15.2836556 13.8284271,16 13,16 L13,16 L3,16 C2.17157288,16 1.5,15.2836556 1.5,14.4 L1.5,14.4 L1.5,1.6 C1.5,0.7163444 2.17157288,0 3,0 L3,0 Z M12.9242424,1.14285714 L3.07575758,1.14285714 C2.80379918,1.14285714 2.58333333,1.37901464 2.58333333,1.67032967 L2.58333333,1.67032967 L2.58333333,14.3296703 C2.58333333,14.6209854 2.80379918,14.8571429 3.07575758,14.8571429 L3.07575758,14.8571429 L12.9242424,14.8571429 C13.1962008,14.8571429 13.4166667,14.6209854 13.4166667,14.3296703 L13.4166667,14.3296703 L13.4166667,1.67032967 C13.4166667,1.37901464 13.1962008,1.14285714 12.9242424,1.14285714 L12.9242424,1.14285714 Z M10.84375,12.5714286 C11.0681157,12.5714286 11.25,12.8272659 11.25,13.1428571 C11.25,13.4233827 11.1062889,13.6566953 10.916774,13.7050792 L10.84375,13.7142857 L5.15625,13.7142857 C4.93188432,13.7142857 4.75,13.4584484 4.75,13.1428571 C4.75,12.8623316 4.89371107,12.629019 5.08322605,12.5806351 L5.15625,12.5714286 L10.84375,12.5714286 Z M10.84375,10.8571429 C11.0681157,10.8571429 11.25,11.1129801 11.25,11.4285714 C11.25,11.709097 11.1062889,11.9424096 10.916774,11.9907935 L10.84375,12 L5.15625,12 C4.93188432,12 4.75,11.7441627 4.75,11.4285714 C4.75,11.1480458 4.89371107,10.9147333 5.08322605,10.8663493 L5.15625,10.8571429 L10.84375,10.8571429 Z M8.04225,2.28571429 L8.06238826,2.28770626 L8.13808147,2.31238072 L8.18331157,2.3471878 C8.22138039,2.38734831 8.24158333,2.43910844 8.24154484,2.49904654 L8.24154484,2.49904654 L8.22425,3.04114286 L8.36206115,3.07195326 C8.66686794,3.15150104 8.9251497,3.28946143 9.1354245,3.48589611 L9.1354245,3.48589611 L9.2558167,3.61077433 C9.524779,3.92030936 9.65966667,4.3026483 9.65966667,4.752 L9.65966667,4.752 L9.65777844,4.90924476 L9.63438911,4.98909693 L9.6013949,5.0368122 C9.56332608,5.07697272 9.51426179,5.09828571 9.46033333,5.09828571 L9.46033333,5.09828571 L8.79561174,5.09629374 L8.71991853,5.07161928 L8.67468843,5.0368122 C8.63661961,4.99665169 8.61641667,4.94489156 8.61641667,4.888 L8.61641667,4.888 L8.61665487,4.80757462 L8.60972263,4.69333984 C8.58766766,4.52282306 8.51082096,4.37607381 8.37591682,4.24935367 C8.21287154,4.0961996 7.98448648,4.01828571 7.68583333,4.01828571 C7.44047991,4.01828571 7.2566476,4.07268155 7.13131776,4.17754259 C7.01162752,4.27768509 6.95241667,4.41769105 6.95241667,4.608 C6.95241667,4.74295743 6.98392722,4.84804473 7.04556871,4.92775695 C7.113464,5.01555632 7.21787522,5.09816739 7.35953873,5.17411598 C7.38955413,5.19020782 7.42289577,5.20723911 7.45956557,5.22520848 L7.45956557,5.22520848 L7.71953786,5.34427069 L8.25962843,5.57154056 C8.51538988,5.68379988 8.72675458,5.78773191 8.89400255,5.88357446 C9.11299657,6.00907043 9.30075405,6.18434439 9.45665872,6.40836504 C9.61765721,6.63970505 9.69758333,6.92609436 9.69758333,7.264 C9.69758333,7.71399503 9.56352502,8.08920198 9.29578634,8.38318013 C9.02979479,8.67523992 8.66307738,8.85160563 8.22656732,8.90611162 L8.256,8.901 L8.26244511,9.39724476 L8.23905577,9.47709693 L8.20606157,9.5248122 C8.16799274,9.56497272 8.11892846,9.58628571 8.065,9.58628571 L8.065,9.58628571 L7.45336174,9.58429374 L7.37766853,9.55961928 L7.33243843,9.5248122 C7.29436961,9.48465169 7.27416667,9.43289156 7.27417873,9.37429443 L7.27417873,9.37429443 L7.28391667,8.89371429 L7.14284755,8.86466605 C6.83243138,8.78677625 6.57092032,8.65414839 6.35965548,8.46643645 L6.35965548,8.46643645 L6.23893685,8.34719644 C5.96871993,8.0506147 5.83333333,7.67407495 5.83333333,7.224 L5.83333333,7.224 L5.83522156,7.00275524 L5.85861089,6.92290307 L5.8916051,6.8751878 C5.92967392,6.83502728 5.97873821,6.81371429 6.03266667,6.81371429 L6.03266667,6.81371429 L6.68980493,6.81570626 L6.76549813,6.84038072 L6.81072823,6.8751878 C6.84879706,6.91534831 6.869,6.96710844 6.869,7.024 L6.869,7.024 L6.8687149,7.16771405 L6.87602124,7.27830085 C6.89915558,7.44131679 6.98000215,7.57987187 7.12315389,7.69797508 C7.29950902,7.84347179 7.54409343,7.91771429 7.86025,7.91771429 C8.13433563,7.91771429 8.33294228,7.85616065 8.45974489,7.73826185 C8.58526456,7.62155592 8.64675,7.47423822 8.64675,7.288 C8.64675,7.16439137 8.61451776,7.06344423 8.55000038,6.98049333 C8.47945638,6.8897939 8.37373744,6.80584833 8.2320446,6.72988402 C8.20178444,6.71366096 8.16851462,6.69640446 8.13226092,6.67812663 L8.13226092,6.67812663 L7.87913854,6.55630075 L7.55564107,6.41054464 C7.21284426,6.2702099 6.93318083,6.13758194 6.71621592,6.01223957 C6.48942715,5.88122189 6.30006801,5.70286164 6.14903601,5.47809187 C5.99375129,5.2469931 5.91675,4.96123008 5.91675,4.624 C5.91675,4.19029148 6.04427926,3.8286346 6.2991267,3.54533025 C6.5517137,3.26453875 6.89365164,3.09059195 7.29676601,3.02988838 L7.2655,3.03542857 L7.25330489,2.47475524 L7.27669423,2.39490307 L7.30968843,2.3471878 C7.34775726,2.30702728 7.39682154,2.28571429 7.45075,2.28571429 L7.45075,2.28571429 L8.04225,2.28571429 Z" />
</svg>
