<svg xmlns="http://www.w3.org/2000/svg" viewBox="0 0 16 16">
  <path d="M8.006 10.16A2.19 2.19 0 0 1 5.82 7.973a2.19 2.19 0 0 1 2.187-2.188 2.19 2.19 0 0 1 2.188 2.188 2.19 2.19 0 0 1-2.188 2.187m6.778-3.458l-1.292-.209a5.673 5.673 0 0 0-.73-1.635l.807-.972a.246.246 0 0 0-.014-.323L12.22 2.23a.253.253 0 0 0-.326-.019l-1.058.834a5.634 5.634 0 0 0-1.615-.626l-.085-1.2A.238.238 0 0 0 8.904 1H7.019a.243.243 0 0 0-.237.218l-.102 1.23a5.63 5.63 0 0 0-1.539.618L4.03 2.209a.256.256 0 0 0-.327.021L2.369 3.563a.253.253 0 0 0-.019.326l.845 1.059a5.65 5.65 0 0 0-.688 1.597l-1.29.1A.241.241 0 0 0 1 6.88v1.886c0 .12.098.23.217.245l1.228.148a5.62 5.62 0 0 0 .647 1.669l-.741.93a.25.25 0 0 0 .018.325l1.333 1.333a.263.263 0 0 0 .33.024l.915-.677c.547.35 1.157.609 1.81.756l.094 1.263a.24.24 0 0 0 .235.218h1.761c.12 0 .232-.097.247-.217l.16-1.264a5.634 5.634 0 0 0 1.776-.735l.862.654a.26.26 0 0 0 .329-.022l1.334-1.333a.263.263 0 0 0 .023-.331l-.671-.903c.33-.563.568-1.187.69-1.852l1.185-.094A.24.24 0 0 0 15 8.668V6.955a.267.267 0 0 0-.216-.253"/>
</svg>
