<svg xmlns="http://www.w3.org/2000/svg" viewBox="0 0 16 16">
  <path d="M11.7243621,1.5 C11.9186443,1.5 12.0980697,1.59444093 12.1917823,1.74636766 L12.1917823,1.74636766 L15.9322869,7.76595073 C16.022571,7.91069172 16.022571,8.08930828 15.9322869,8.23507581 L15.9322869,8.23507581 L12.1917823,14.2536323 C12.0980697,14.4055591 11.9186443,14.5 11.7243621,14.5 L11.7243621,14.5 L4.27535223,14.5 C4.08221282,14.5 3.90278745,14.4055591 3.807932,14.2536323 L3.807932,14.2536323 L0.0685702041,8.23507581 C-0.0228567347,8.08930828 -0.0228567347,7.91069172 0.0685702041,7.76595073 L0.0685702041,7.76595073 L3.807932,1.74636766 C3.90278745,1.59444093 4.08221282,1.5 4.27535223,1.5 L4.27535223,1.5 Z M10.3879795,4.73411646 L7.96260323,7.15807851 L5.66551634,4.86038553 L4.85739431,5.66850756 L7.15438018,7.96630156 L4.73112524,10.3909707 L5.49715758,11.1570031 L7.92088393,8.73280531 L10.2196207,11.030734 L11.0277428,10.222612 L8.72910698,7.92458226 L11.1540118,5.50014881 L10.3879795,4.73411646 Z" fill="#D6251F" />
</svg>
