<svg xmlns="http://www.w3.org/2000/svg" viewBox="0 0 16 16">
  <path d="M3 5.5 L8.5 11.5 L5 11.5 L5 11.5 C5 14.6045752 9.80584391 14.6654492 9.99430837 11.6826221 L10 11.5 L10.0000889 5.82932572 C8.8348501 5.41751442 8 4.30625206 8 3 C8 1.34314575 9.34314575 0 11 0 C12.6568542 0 14 1.34314575 14 3 C14 4.30588222 13.1656226 5.41688515 12.0009007 5.82897577 L12 11.5 C12 17.3333333 3 17.3333333 3 11.5 L3 5.5 Z M11 2 C10.4477153 2 10 2.44771525 10 3 C10 3.55228475 10.4477153 4 11 4 C11.5522847 4 12 3.55228475 12 3 C12 2.44771525 11.5522847 2 11 2 Z"></path>
</svg>
