<svg xmlns="http://www.w3.org/2000/svg" viewBox="0 0 16 16">
  <path d="M9 10 L9 14 C9 14.553 9.448 15 10 15 L14 15 C14.552 15 15 14.553 15 14 L15 10 C15 9.448 14.552 9 14 9 L10 9 C9.448 9 9 9.448 9 10 M9 2 L9 6 C9 6.553 9.448 7 10 7 L14 7 C14.552 7 15 6.553 15 6 L15 2 C15 1.448 14.552 1 14 1 L10 1 C9.448 1 9 1.448 9 2 M1 10 L1 14 C1 14.553 1.448 15 2 15 L6 15 C6.552 15 7 14.553 7 14 L7 10 C7 9.448 6.552 9 6 9 L2 9 C1.448 9 1 9.448 1 10 M2 1 L6 1 C6.552 1 7 1.448 7 2 L7 6 C7 6.553 6.552 7 6 7 L2 7 C1.448 7 1 6.553 1 6 L1 2 C1 1.448 1.448 1 2 1"/>
</svg>
