<svg xmlns="http://www.w3.org/2000/svg" viewBox="0 0 16 16">
  <path d="M8.01582209,5.72757766 L9.34691943,10.8910602 C9.44287277,11.264693 9.82464455,11.4903019 10.1992709,11.3933207 C10.389136,11.3443197 10.5473569,11.2187546 10.6392271,11.0492927 L10.6800583,10.9614992 L11.5334306,8.68091002 L14.0874225,8.67580575 C13.7505651,11.7363278 11.1485964,14.1251276 8.00051039,14.1251276 C4.85140357,14.1251276 2.25045571,11.7373487 1.91257747,8.6768266 L3.91432738,8.68091002 L5.05964273,12.2202129 C5.17805323,12.5877206 5.57207437,12.7888289 5.94057601,12.6704098 C6.13758658,12.6071168 6.29376595,12.4590929 6.37236602,12.2712557 L6.40401021,12.1742745 L8.01582209,5.72757766 Z M8.00051039,1.87589325 C11.2118848,1.87589325 13.8546847,4.36065335 14.1057966,7.50896894 L11.2088225,7.51407321 C10.9536274,7.51509406 10.7219103,7.65393029 10.5994167,7.87137232 L10.5545024,7.96937436 L10.1074007,9.16581595 L8.68647466,3.65626367 C8.62318629,3.408196 8.42821728,3.21525448 8.17914692,3.15298235 C7.83820634,3.06723057 7.49318265,3.24792183 7.36252279,3.5633659 L7.32985782,3.66136795 L5.66802771,10.310194 L4.92081662,7.99897915 C4.83711265,7.74274464 4.61662413,7.56001167 4.35530441,7.52224005 L4.25526795,7.51407321 L1.89522421,7.50998979 C2.14531535,4.36065335 4.7881152,1.87589325 8.00051039,1.87589325 L8.00051039,1.87589325 Z M8.00051039,1 C4.1348159,1 1,4.13402363 1,8.00102085 C1,11.8659764 4.1348159,15 8.00051039,15 C11.8651841,15 15,11.8659764 15,8.00102085 C15,4.13402363 11.8651841,1 8.00051039,1 L8.00051039,1 Z" fill="#000000"></path>
</svg>
