<svg xmlns="http://www.w3.org/2000/svg" viewBox="0 0 16 16">
  <path d="M8,-4.26325641e-14 C12.418278,-4.26325641e-14 16,3.581722 16,8 C16,12.418278 12.418278,16 8,16 C3.581722,16 0,12.418278 0,8 C0,3.581722 3.581722,-4.26325641e-14 8,-4.26325641e-14 Z M8,1.14285714 C4.21290457,1.14285714 1.14285714,4.21290457 1.14285714,8 C1.14285714,11.7870954 4.21290457,14.8571429 8,14.8571429 C11.7870954,14.8571429 14.8571429,11.7870954 14.8571429,8 C14.8571429,4.21290457 11.7870954,1.14285714 8,1.14285714 Z M8.01538894,5.77367024 L9.3191083,10.8314485 C9.41363658,11.1981709 9.78755414,11.4188278 10.1542765,11.3242996 C10.3400454,11.2764148 10.4957631,11.1534038 10.5858787,10.9872373 L10.6253051,10.9007058 L11.461759,8.66641094 L13.9637727,8.66151017 C13.6333985,11.6599626 11.0842385,14 8,14 C4.91530401,14 2.36705823,11.6604811 2.03632622,8.66250676 L3.99756704,8.66627243 L5.11870742,12.1329539 C5.23524115,12.4932882 5.62181907,12.6909276 5.98215337,12.5743939 C6.17512784,12.5119851 6.32883654,12.3680784 6.40496213,12.1836797 L6.43638227,12.0882958 L8.01538894,5.77367024 Z M8,2 C11.1457456,2 13.7348584,4.43429992 13.9808775,7.51865095 L11.1433889,7.52409954 C10.8935389,7.52452915 10.6668039,7.66039593 10.546956,7.87350502 L10.5023809,7.96939694 L10.0636584,9.14129096 L8.67267164,3.74495874 C8.60991183,3.50148212 8.41893165,3.31188018 8.17500686,3.25088545 C7.8410092,3.16736751 7.5029519,3.34436945 7.37522415,3.65327298 L7.3434301,3.74977246 L5.7149063,10.2624226 L4.9828348,7.99878212 C4.90162121,7.74766133 4.68494647,7.56836072 4.4292649,7.53120511 L4.33174425,7.52407216 L2.0190366,7.51965608 C2.2644995,4.4348288 4.8530974,2 8,2 Z" fill="#000000"></path>
</svg>
