<svg xmlns="http://www.w3.org/2000/svg" viewBox="0 0 16 16">
  <path d="M1 14 C1 14.553 1.448 15 2 15 L14 15 C14.552 15 15 14.553 15 14 C15 13.448 14.552 13 14 13 L2 13 C1.448 13 1 13.448 1 14 M1 10 C1 10.553 1.448 11 2 11 L14 11 C14.552 11 15 10.553 15 10 C15 9.448 14.552 9 14 9 L2 9 C1.448 9 1 9.448 1 10 M1 6 C1 6.553 1.448 7 2 7 L14 7 C14.552 7 15 6.553 15 6 C15 5.448 14.552 5 14 5 L2 5 C1.448 5 1 5.448 1 6 M2 1 L14 1 C14.552 1 15 1.448 15 2 C15 2.553 14.552 3 14 3 L2 3 C1.448 3 1 2.553 1 2 C1 1.448 1.448 1 2 1"/>
</svg>
