<svg xmlns="http://www.w3.org/2000/svg" viewBox="0 0 16 16">
  <path d="M4.78 10.577a1.124 1.124 0 0 1-.138 1.536 1.016 1.016 0 0 1-1.472-.145L0 7.975l3.174-3.948a1.016 1.016 0 0 1 1.473-.135c.443.387.5 1.075.13 1.536L2.721 7.984l2.059 2.593zm6.44 0l2.058-2.593-2.054-2.556a1.124 1.124 0 0 1 .129-1.536 1.016 1.016 0 0 1 1.473.135L16 7.975l-3.17 3.993a1.016 1.016 0 0 1-1.472.145 1.124 1.124 0 0 1-.139-1.536zM7.58 13.254c-.182.571-.775.88-1.322.69-.548-.19-.844-.809-.662-1.38l3.137-9.818c.183-.571.775-.88 1.323-.69.548.19.844.809.661 1.38l-3.137 9.818z"/>
</svg>
