<svg xmlns="http://www.w3.org/2000/svg" viewBox="0 0 16 16">
  <path d="M7.69101596 0.0455212915 C7.88595914 -0.0153993643 8.09488196 -0.0151677534 8.2896896 0.0461849783 L8.2896896 0.0461849783 L15.2236905 2.22997978 C15.6472522 2.36337635 15.9321058 2.7601179 15.9230896 3.20409755 C15.7831866 10.0937501 13.1389757 14.3430325 7.99045688 15.9519446 C2.84355914 14.343515 0.180188185 10.0962988 0.000344012718 3.21029587 C-0.0113275869 2.76340528 0.275028473 2.3630559 0.701720379 2.22970881 L0.701720379 2.22970881 Z M7.95958588 2.28527794 C6.69722074 2.28527794 5.6738716 3.30862708 5.6738716 4.57099222 L5.6738716 4.57099222 L5.6738716 5.71384937 L4.53101445 5.71384937 C4.21542317 5.71384937 3.95958588 5.96968665 3.95958588 6.28527794 L3.95958588 6.28527794 L3.95958588 10.7138494 C3.95958588 11.0294407 4.21542317 11.2852779 4.53101445 11.2852779 L4.53101445 11.2852779 L11.3881573 11.2852779 C11.7037486 11.2852779 11.9595859 11.0294407 11.9595859 10.7138494 L11.9595859 10.7138494 L11.9595859 6.28527794 C11.9595859 5.96968665 11.7037486 5.71384937 11.3881573 5.71384937 L11.3881573 5.71384937 L10.2453002 5.71384937 L10.2453002 4.57099222 C10.2453002 3.30862708 9.22195102 2.28527794 7.95958588 2.28527794 Z M7.95958588 7.28527794 C8.51187063 7.28527794 8.95958588 7.73299319 8.95958588 8.28527794 C8.95958588 8.65495897 8.75898626 8.97778744 8.46070018 9.15085019 L8.46070018 9.15085019 L8.45958588 10.2852779 L7.45958588 10.2852779 L7.45945638 9.15142081 L7.36361004 9.08835811 C7.11843327 8.90611086 6.95958588 8.6142448 6.95958588 8.28527794 C6.95958588 7.73299319 7.40730113 7.28527794 7.95958588 7.28527794 Z M7.95958588 3.42813508 C8.59076845 3.42813508 9.10244302 3.93980965 9.10244302 4.57099222 L9.10244302 4.57099222 L9.10244302 5.71384937 L6.81672874 5.71384937 L6.81672874 4.57099222 C6.81672874 3.93980965 7.32840331 3.42813508 7.95958588 3.42813508 Z"/>
</svg>
