<svg xmlns="http://www.w3.org/2000/svg" viewBox="0 0 16 16">
  <path d="M8.55300697,0 L8.95955126,0.0531636621 C9.22536868,0.0893601979 9.48336794,0.124425592 9.74248407,0.18776953 C12.6597744,0.906044539 14.5271976,2.62198657 15.2944941,5.29034995 C15.36039,5.51431601 15.3983639,5.73941322 15.4341041,5.95546129 L15.4341041,5.95546129 L15.4569381,6.09894872 C15.4688515,6.17251483 15.4802685,6.23786968 15.4921818,6.30272181 L15.4921818,6.30272181 L15.5,9.80473666 L15.4463898,10.1293743 C15.4128834,10.3227996 15.3771432,10.5411099 15.3179486,10.7582891 C14.6891452,13.0431955 13.1400328,14.6528102 10.7119358,15.5441499 C9.88879534,15.8461647 8.99194078,16 8.04817725,16 C7.38028307,15.9988689 6.94693366,15.5984447 6.9446999,14.9819724 L6.9446999,14.9819724 L6.94581678,14.8100389 C5.32857468,14.5102863 3.90902031,13.5329799 3.03226959,12.1156592 C1.71881881,11.7966773 0.723678816,10.7775186 0.549445551,9.56945917 C0.513705394,9.32060799 0.511471634,9.0796748 0.509237874,8.8466596 L0.509237874,8.8466596 L0.504770354,8.3319901 C0.499185955,7.7494521 0.495835315,7.26419229 0.510354754,6.76762107 C0.584068828,4.3786497 1.72105257,2.48172499 3.88668272,1.12887946 C4.88517335,0.506751502 6.02997526,0.136868151 7.29204956,0.0305408271 L7.29204956,0.0305408271 L7.40597131,0.00452456698 L8.55300697,0 Z M8.47482538,0.906044539 L7.52547746,0.910569106 C7.46851658,0.92640509 7.4227245,0.934323082 7.37358179,0.938847649 C6.27122132,1.03047013 5.27049692,1.35284553 4.40156435,1.89466242 C2.51180355,3.07444327 1.52001419,4.72251679 1.45523516,6.79589961 C1.4418326,7.28002828 1.44518324,7.77659951 1.44965076,8.25846589 L1.44965076,8.25846589 L1.4530014,8.79915164 C1.45411828,9.01633086 1.45523516,9.24142807 1.48650779,9.44164016 C1.59372826,10.2028986 2.15998638,10.8589608 2.96302303,11.1575822 C3.13949006,11.2220573 3.33494404,11.2673029 3.5594369,11.2933192 L3.5594369,11.2933192 L3.61416402,11.2989749 C3.70463129,11.3091552 3.77387785,11.3182043 3.84535816,11.3182043 L3.84535816,11.3182043 L3.92577351,11.315942 C4.01512391,11.3136797 4.01512391,11.2865323 4.01512391,11.2673029 C4.01959143,9.80926122 4.01847455,8.35121951 4.01512391,6.89204666 C4.01512391,6.86716154 4.00730575,6.85358784 4.00507199,6.85132556 C4.00395511,6.85019441 3.99278631,6.84453871 3.95816303,6.84453871 C3.80515048,6.8524567 3.6208653,6.87281725 3.43993075,6.90109579 L3.43993075,6.90109579 L3.38520364,6.91127607 C3.31372332,6.92258749 3.24782741,6.93276776 3.18193149,6.95086603 C3.10486678,6.97235772 3.02221767,7.00742312 2.93286727,7.0447508 L2.93286727,7.0447508 L2.8479844,7.08207847 C2.81894552,7.09452103 2.79102353,7.10470131 2.76421841,7.11488158 L2.76421841,7.11488158 L2.73629641,7.12506186 C2.69720561,7.1397667 2.65699794,7.1533404 2.61679026,7.17143867 C2.50398539,7.22120891 2.41686876,7.25966773 2.32863524,7.2969954 L2.32863524,7.2969954 L1.64845538,7.57638742 L1.6696761,6.86489926 C1.73445513,4.652386 2.76533529,2.99073878 4.73216081,1.92746554 C7.00277766,0.700176741 9.37503058,0.76465182 11.5898034,2.11184164 C13.5912522,3.32781902 14.3954058,5.39893955 14.3049385,6.91240721 L14.3049385,6.91240721 L14.281484,7.30378226 L13.7074077,7.36486391 L13.444941,7.20537292 C13.3924476,7.1748321 13.3354867,7.15447154 13.2762921,7.13184871 C13.2327338,7.11601273 13.1925261,7.10017674 13.1512016,7.08320961 C12.95128,6.9961117 12.7535923,6.93503005 12.5570214,6.90109579 L12.5570214,6.90109579 L12.4565023,6.88299753 C12.3425805,6.86150583 12.2387107,6.84114528 12.1370746,6.84114528 C12.0253866,6.84680099 11.9963477,6.86150583 11.9929971,6.86263697 L11.9929971,6.86263697 C11.9974646,6.86263697 11.9885296,6.89204666 11.9885296,6.94860375 L11.9885296,6.94860375 L11.9885296,9.77532697 C11.9874127,10.2651113 11.9874127,10.7537646 11.9896464,11.2412867 C11.9896464,11.300106 11.9896464,11.3148109 12.0901656,11.3148109 C12.1661135,11.3148109 12.2655158,11.3125486 12.3582168,11.2989749 L12.3582168,11.2989749 L12.4285803,11.2865323 C12.5882941,11.2571227 12.7457741,11.2254507 12.9099555,11.1903853 L12.9099555,11.1903853 L14.1441078,10.9370095 L13.6716676,11.7978084 C13.0037734,13.0183104 11.975127,13.8858961 10.5298844,14.4525981 L10.5298844,14.4525981 L9.9412887,14.683351 L9.87204214,13.9763874 C9.86980838,13.9017321 9.85640582,13.8779781 9.84858767,13.8644044 C9.84858767,13.8632732 9.82401631,13.8463061 9.72684776,13.8463061 L9.72684776,13.8463061 L8.80765559,13.845175 L8.00796958,13.8463061 C7.89181407,13.8463061 7.89181407,13.8576175 7.89181407,13.9390597 L7.89181407,13.9390597 L7.89069719,14.0815836 L7.89181407,14.1528455 C7.89069719,14.3270414 7.89069719,14.4989749 7.89181407,14.6709084 L7.89181407,14.6709084 L7.89069719,14.7761046 L7.89181407,14.978579 C7.89181407,15.0487098 7.90745039,15.0679392 7.90745039,15.0679392 C7.91303478,15.0735949 7.94095678,15.0860375 8.04817725,15.0894309 C8.87690215,15.0894309 9.66095184,14.954825 10.3746381,14.6924001 C12.5022943,13.9119123 13.8581865,12.5092966 14.4043408,10.5230117 C14.449016,10.3601273 14.476938,10.1927183 14.5082106,10.015129 L14.5082106,10.015129 L14.5562365,9.73799929 L14.5551196,6.39886886 C14.5428339,6.3513609 14.5271976,6.26539413 14.5082106,6.14775539 C14.4713536,5.91247791 14.4378472,5.71792153 14.384237,5.53467656 C13.7129921,3.20339343 12.0734124,1.70123719 9.50905617,1.07232238 C9.29684899,1.01915871 9.07347301,0.988617886 8.83669447,0.956945917 L8.83669447,0.956945917 L8.78866863,0.950159067 C8.6847988,0.936585366 8.58092897,0.920749381 8.47482538,0.906044539 L8.47482538,0.906044539 Z M8.00015142,3.99293036 C6.49124666,3.99293036 5.0549391,4.71799222 4.1212275,5.94301873 C4.31221396,5.97016614 4.49649915,6.05160834 4.63834289,6.17490279 C4.8438488,6.35362319 4.95888743,6.60813008 4.96112119,6.88865323 C4.96447183,8.35121951 4.96447183,9.81039236 4.96112119,11.2706964 C4.95888743,11.7050548 4.67966745,12.050053 4.24743493,12.1710852 C4.94325111,13.0081301 5.89594967,13.5906681 6.95363494,13.8236833 C7.01506334,13.2807352 7.4227245,12.9368682 8.0068527,12.9346059 C8.57981209,12.9334747 9.15612212,12.9312124 9.72796464,12.9346059 C10.1490284,12.935737 10.4718067,13.095228 10.6583256,13.3972428 C11.3016484,13.0850477 11.8232313,12.6970661 12.2442951,12.2185931 C12.226425,12.2185931 12.207438,12.2185931 12.1906848,12.2197243 L12.1906848,12.2197243 L12.1605291,12.2219866 C12.1370746,12.2242489 12.1136201,12.22538 12.0890488,12.22538 C11.4747648,12.2242489 11.0458829,11.8204312 11.044766,11.243549 C11.0425323,10.7548957 11.0425323,10.2651113 11.0436492,9.77532697 L11.0436492,9.77532697 L11.0436492,6.94860375 C11.0436492,6.63527748 11.1452852,6.38190173 11.3496743,6.19639449 C11.4904011,6.06744433 11.65905,5.99165783 11.8857766,5.95659244 C10.9531819,4.72364793 9.51352369,3.99293036 8.00015142,3.99293036 Z M6.44657147,7.99943443 C6.8062068,7.99943443 7.09994621,8.29579357 7.09994621,8.66115235 C7.09994621,9.02651113 6.8062068,9.32287027 6.44657147,9.32287027 C6.08581925,9.32287027 5.79319672,9.02651113 5.79319672,8.66115235 C5.79319672,8.29579357 6.08581925,7.99943443 6.44657147,7.99943443 Z M9.56166122,7.99943443 C9.92241343,7.99943443 10.215036,8.29579357 10.215036,8.66115235 C10.215036,9.02651113 9.92241343,9.32287027 9.56166122,9.32287027 C9.20090901,9.32287027 8.90828647,9.02651113 8.90828647,8.66115235 C8.90828647,8.29579357 9.20090901,7.99943443 9.56166122,7.99943443 Z M8.08838493,1.96366207 L8.05152789,1.96366207 C7.93872302,1.96366207 7.82480127,1.97158006 7.71311328,1.97836691 L7.71311328,1.97836691 L7.56345137,1.98854719 C7.49867234,1.99080947 7.43501018,1.9942029 7.37134803,2.00212089 C7.23843932,2.01795688 7.09994621,2.04736656 6.9670375,2.0756451 L6.9670375,2.0756451 L6.91901167,2.08582538 C6.88550527,2.09261223 6.85088199,2.09939908 6.81625871,2.10618593 C6.75929784,2.11636621 6.70457072,2.12654648 6.64760985,2.14125133 C6.47672722,2.18536585 6.30249396,2.24984093 6.14613077,2.30639802 C6.11485813,2.3165783 6.08470238,2.32562743 6.05454662,2.33580771 C6.0109883,2.34938141 5.9663131,2.36408625 5.92163791,2.38105338 C5.67927497,2.47833157 5.43356139,2.59370802 5.19343221,2.72265818 C3.76382593,3.49635914 2.9205816,4.65012372 2.6815693,6.15227996 C2.74858209,6.12739484 2.81336112,6.10590315 2.87702328,6.08780488 C2.92169848,6.01088724 2.96972431,5.93736303 3.01775015,5.86383881 L3.01775015,5.86383881 L3.09034734,5.75298692 C3.11268494,5.71792153 3.13390566,5.68398727 3.15512638,5.64892188 C3.19198341,5.58784023 3.22884045,5.52675857 3.27016501,5.46907034 C3.3371778,5.37631672 3.409775,5.29148109 3.48460595,5.20551432 L3.48460595,5.20551432 L3.55496938,5.12294097 C3.5817745,5.09240014 3.60634586,5.06072817 3.6320341,5.0290562 C3.67894305,4.96910569 3.72696889,4.91028632 3.77946224,4.85486037 C3.8542932,4.77681159 3.93470855,4.70554966 4.01624079,4.63428773 L4.01624079,4.63428773 L4.10000678,4.55963238 C4.13016254,4.53135384 4.15920141,4.50307529 4.18935717,4.47479675 C4.24408429,4.42163309 4.2988114,4.37073171 4.35912292,4.32209261 C4.44065515,4.25535525 4.5266549,4.19766702 4.61488842,4.13884765 L4.61488842,4.13884765 L4.71317385,4.07211029 C4.74891401,4.04722517 4.7824204,4.02234005 4.81704368,3.99858607 C4.87735519,3.95447154 4.93654983,3.91148816 4.99797822,3.87416048 C5.09179614,3.81760339 5.18896469,3.77009544 5.28613324,3.72258749 L5.28613324,3.72258749 L5.39447059,3.66829268 C5.42797699,3.65132556 5.46260027,3.63322729 5.49610666,3.61512902 C5.5608857,3.57893248 5.62566473,3.54499823 5.69267753,3.51558855 C5.799898,3.46921174 5.91158599,3.43188406 6.0221571,3.39455638 L6.0221571,3.39455638 L6.12826069,3.35949099 C6.16623461,3.34704843 6.20197477,3.33347473 6.2388318,3.31876988 C6.30249396,3.29501591 6.36392235,3.27126193 6.42870139,3.25316366 C6.57612953,3.21131142 6.7280252,3.18416402 6.87433647,3.15701661 L6.87433647,3.15701661 L6.94916742,3.14344291 C6.98155694,3.13665606 7.01282958,3.12986921 7.04410222,3.12308236 C7.09659557,3.1106398 7.14908893,3.09819724 7.20269916,3.09141039 C7.72651584,3.01788618 8.27267011,3.01788618 8.79648679,3.09141039 C8.84674639,3.09819724 8.8958891,3.10950866 8.9461487,3.12195122 C8.97742134,3.12873807 9.00757709,3.13552492 9.03884973,3.14231177 L9.03884973,3.14231177 L9.09581061,3.1513609 C9.25217379,3.17963945 9.41188762,3.20904913 9.56713393,3.25203252 C9.62521168,3.2678685 9.6799388,3.2893602 9.73466591,3.31085189 C9.77152295,3.32329445 9.80614623,3.33686815 9.84300327,3.34931071 L9.84300327,3.34931071 L9.94910686,3.38550725 C10.068613,3.42509721 10.1881192,3.46468717 10.3031578,3.51558855 C10.3690537,3.54273595 10.4293652,3.57553906 10.4919105,3.60947331 L10.4919105,3.60947331 L10.589079,3.66150583 L10.6840138,3.70788264 C10.7901174,3.75991516 10.896221,3.81081654 10.9956233,3.87302934 C11.0604024,3.91035702 11.1218308,3.95447154 11.1799085,3.99858607 C11.2134149,4.02120891 11.2458044,4.04496288 11.2793108,4.06758572 L11.2793108,4.06758572 L11.3686612,4.12979852 C11.4602454,4.18974903 11.5507126,4.25083068 11.6367124,4.31983033 C11.6992577,4.37073171 11.7595692,4.42728879 11.8198807,4.48384588 L11.8198807,4.48384588 L11.9896464,4.63994344 C12.0667112,4.70781195 12.1437759,4.77568045 12.2141393,4.85033581 C12.2733339,4.91141746 12.3258273,4.97589254 12.3794375,5.0426299 C12.4051258,5.07430187 12.4296971,5.10710498 12.4576191,5.13877695 L12.4576191,5.13877695 L12.5324501,5.22700601 C12.598346,5.30392365 12.663125,5.37971014 12.7223197,5.46115235 C12.7770468,5.53467656 12.8239557,5.61385649 12.8719816,5.69303641 L12.8719816,5.69303641 L12.9322931,5.7903146 C12.9535138,5.82651113 12.979202,5.86270767 13.0026565,5.89890421 C13.0428642,5.95885472 13.0830719,6.01993637 13.1199289,6.08328031 C13.1925261,6.10364086 13.2617727,6.12513256 13.3265517,6.14662425 C13.2226819,5.48603747 12.8005013,3.926193 11.0860906,2.88214917 C10.8459614,2.73623188 10.5946634,2.6038883 10.3388979,2.48624956 C10.2886383,2.46362672 10.2394956,2.44552846 10.1881192,2.42629905 C10.1512621,2.41385649 10.1166388,2.40141393 10.0808987,2.38670908 L10.0808987,2.38670908 L10.0194703,2.36182397 C9.87204214,2.30187345 9.73243215,2.24531637 9.59058841,2.20233298 C9.52580937,2.18084129 9.45991346,2.16726759 9.39401754,2.15256274 L9.39401754,2.15256274 L9.27897891,2.12654648 L9.20079732,2.10731707 C9.08129117,2.07677625 8.96178502,2.04736656 8.84227887,2.02813715 C8.76633103,2.01569459 8.69150008,2.01003888 8.61555225,2.00438317 L8.61555225,2.00438317 L8.4402021,1.98854719 C8.32404659,1.97723577 8.20454044,1.96479321 8.08838493,1.96366207 L8.08838493,1.96366207 Z" />
</svg>
