<svg xmlns="http://www.w3.org/2000/svg" viewBox="0 0 16 16">
  <path d="M9.70164972,0.064195203 L9.82179292,0.11813325 L9.93453664,0.187782934 L11.8946073,1.59876876 L11.9232995,1.80593363 L11.6924303,2.0852591 C11.518456,2.29397717 11.4370985,2.54921133 11.4628619,2.8021917 C11.4883879,3.04944175 11.6109728,3.26193278 11.8089614,3.40387623 C12.1930268,3.68029779 12.7579639,3.61779734 13.1217893,3.2692987 L13.2083348,3.17624637 L13.438807,2.89838463 L13.6611755,2.87178548 L15.6223034,4.28277131 C15.8359631,4.43712746 15.9687778,4.66550859 15.9951068,4.92141444 C16.0168507,5.12889386 15.9656542,5.33659872 15.8509557,5.51729616 L15.7745919,5.62225586 L7.49455603,15.6124124 C7.29066375,15.8586622 6.97996733,16 6.65962053,16 C6.48741403,16 6.32036934,15.9593234 6.17269024,15.8800975 L6.06578389,15.8134833 L4.10465601,14.4015121 L4.07618799,14.1940952 L4.30767128,13.9153037 C4.66270004,13.4872977 4.60613672,12.8955469 4.19031159,12.5954263 C3.80669711,12.3193292 3.24090606,12.3828553 2.87708151,12.7322212 L2.79055531,12.8254865 L2.55902593,13.1023629 L2.3370172,13.1284857 L0.377771915,11.718318 C-0.026007253,11.4265858 -0.113541286,10.8916553 0.151145921,10.4793365 L0.224676485,10.3790229 L8.50531879,0.387153159 C8.67347141,0.186645205 8.91178395,0.0536227139 9.17567913,0.0132102551 C9.35675384,-0.0154328863 9.53716128,0.00292225087 9.70164972,0.064195203 Z M9.31713382,1.0067976 L6.86772111,3.96168136 C7.01643109,3.93528397 7.17624597,3.96833914 7.30347327,4.06536555 L7.51195343,4.22302805 C7.74041793,4.39704181 7.77546504,4.71170139 7.5914212,4.9265221 C7.48363828,5.05065993 7.3257103,5.11391334 7.16680118,5.11113957 C7.05268523,5.10914767 6.9370471,5.07212387 6.84016784,4.99942202 L6.63275418,4.84177814 C6.51127836,4.74871535 6.44418557,4.61616186 6.43581696,4.48028372 L1.07088182,10.9546418 L2.34059319,11.8690237 L2.38322012,11.838224 L2.54031709,11.737591 L2.65440399,11.6753804 L2.8282023,11.5958553 L2.94772822,11.5524022 L3.06034663,11.5166261 C3.13203332,11.4973923 3.18689777,11.4844871 3.24581301,11.4730699 L3.37895097,11.4515308 L3.54128608,11.4369113 L3.60745008,11.4340026 L3.78391535,11.438101 C3.85003444,11.4409452 3.9011331,11.4460313 3.97265847,11.4560241 L4.10598692,11.480429 L4.2498212,11.5171436 L4.33225753,11.5441486 C4.40234025,11.5675459 4.45393175,11.5876008 4.51263265,11.6137234 L4.60243166,11.6573054 L4.74499905,11.7387952 L4.84653967,11.8067882 L4.98677676,11.9183922 C5.03670322,11.9629007 5.07629922,12.0015616 5.11786568,12.0461954 L5.19934298,12.1400934 L5.27290401,12.2371177 L5.33453627,12.3309056 L5.39669109,12.4392769 C5.4053144,12.4555419 5.41338458,12.471483 5.42137379,12.4879621 L5.47119038,12.60288 L5.52898006,12.7711387 L5.56523473,12.92195 L5.57761846,12.992987 C5.58559809,13.0461088 5.59130077,13.099258 5.59482876,13.1542477 L5.59695911,13.3276117 L5.58310412,13.4996394 L5.56337567,13.6249652 C5.56025998,13.6414028 5.55706084,13.6565219 5.55352379,13.671682 L5.5309873,13.7621376 L5.48277584,13.9134685 L5.44199958,14.0162531 L5.41285066,14.0791083 L6.68150482,14.9934902 L11.824,8.787 L11.7659913,8.74255959 C11.5364603,8.56852722 11.5003641,8.25284917 11.685457,8.03904693 C11.8695009,7.82422622 12.2050638,7.79107755 12.4356613,7.96512854 L12.479,7.998 L14.9266996,5.045646 L13.6580454,4.13224945 L13.5594937,4.20186299 L13.4599368,4.26311726 C13.39768,4.29926309 13.3502095,4.32420842 13.2935503,4.35122502 L13.1181048,4.42495142 L12.9410456,4.48307813 C12.8739816,4.50201868 12.8218273,4.51417069 12.7573879,4.5266826 C12.6858065,4.54067104 12.6273406,4.5493284 12.5699908,4.55443433 C12.5079412,4.5612379 12.4507364,4.56521665 12.3918229,4.56628524 L12.2152688,4.56391666 L12.0284579,4.54439305 L11.8982684,4.52090605 L11.7761126,4.49091337 L11.6625086,4.45593062 L11.538179,4.40847927 L11.4177416,4.35283471 L11.3150196,4.2978326 L11.2029201,4.22821642 C11.186615,4.21743737 11.171061,4.20677784 11.155601,4.19579938 C11.1081244,4.16184135 11.0611738,4.12395318 11.0125541,4.08096189 C10.9625592,4.0364374 10.9235771,3.99911053 10.8816894,3.9551996 L10.765735,3.81716613 L10.6951025,3.71709366 C10.6851562,3.70189671 10.6758804,3.68709766 10.6669112,3.672182 C10.6303073,3.6136993 10.6049587,3.56718745 10.579314,3.51309352 L10.5295729,3.40067849 L10.4891784,3.28887394 L10.4563795,3.17920843 L10.4309914,3.05964823 L10.4230241,3.01223863 C10.4146552,2.96153967 10.4097014,2.91245408 10.4054959,2.84691579 L10.4023044,2.67582907 L10.4160957,2.50216359 L10.4355703,2.38183757 L10.4467149,2.32999771 C10.4618863,2.26212633 10.4749369,2.21323967 10.4933883,2.15398568 L10.5581944,1.98193567 L10.585788,1.92019415 L9.31713382,1.0067976 Z M11.112001,6.95927428 L11.4794464,7.23872965 C11.7089775,7.41276203 11.7450911,7.72744022 11.5599982,7.94124247 C11.4521978,8.06638015 11.2942698,8.12963356 11.1353607,8.1268598 C11.0212447,8.12486789 10.9056066,8.08784409 10.8097939,8.01516086 L10.4423484,7.73570549 C10.2127999,7.56267296 10.1777528,7.24801338 10.3628632,7.03321129 C10.546907,6.81839058 10.8824874,6.78424206 11.112001,6.95927428 Z M9.78960996,5.95404228 L10.1570554,6.23349765 C10.3865864,6.40753002 10.4216335,6.7221896 10.2365232,6.9369917 C10.1298068,7.06114815 9.9718788,7.12440156 9.81296968,7.12162779 C9.69778722,7.11961727 9.5832156,7.08261208 9.48633634,7.00991024 L9.11889087,6.73045487 C8.89042637,6.55644111 8.85431276,6.24176291 9.0394231,6.02696082 C9.22453344,5.81215872 9.5590299,5.77899144 9.78960996,5.95404228 Z M8.46615244,4.94879165 L8.8346644,5.22826564 C9.06312891,5.4022794 9.09817601,5.71693898 8.91413218,5.93175969 C8.80634926,6.05589752 8.64842128,6.11915093 8.48951215,6.11637717 C8.3753962,6.11438526 8.25975808,6.07736146 8.16287881,6.00465961 L7.79543335,5.72520424 C7.56696884,5.55119048 7.53085524,5.23651229 7.71596558,5.02171019 C7.90105846,4.80790795 8.23555492,4.77474066 8.46615244,4.94879165 Z" />
</svg>
