<svg xmlns="http://www.w3.org/2000/svg" viewBox="0 0 16 16">
  <path d="M8,0 C12.418278,0 16,3.581722 16,8 C16,12.418278 12.418278,16 8,16 C3.581722,16 0,12.418278 0,8 C0,3.581722 3.581722,0 8,0 Z M8,1.14285714 C4.21290457,1.14285714 1.14285714,4.21290457 1.14285714,8 C1.14285714,11.7870954 4.21290457,14.8571429 8,14.8571429 C11.7870954,14.8571429 14.8571429,11.7870954 14.8571429,8 C14.8571429,4.21290457 11.7870954,1.14285714 8,1.14285714 Z M7.98584949,2.85714286 C9.34889681,2.85714286 10.4550686,3.96926648 10.4550686,5.34532261 C10.4550686,6.03714702 10.1731131,6.67958828 9.69676508,7.14069284 L9.54936063,7.27100304 L9.60952352,7.30690349 L9.7762134,7.4203516 L9.94138786,7.54644391 L10.1051883,7.68526764 L10.2416263,7.81195445 L10.3714232,7.94232396 L10.651769,8.25794222 L10.8927771,8.57891367 C11.2423945,9.08380698 11.5094592,9.66366866 11.696734,10.3237804 L11.7721176,10.6116142 L11.8248732,10.8469718 L11.8721751,11.0950836 L12,12 L4,12 L4.12132361,11.1348656 L4.19938519,10.7391559 C4.32098422,10.1957878 4.50640614,9.68111979 4.75515981,9.19630862 C5.14427514,8.4352247 5.61044167,7.85635785 6.15617404,7.46199175 L6.34103517,7.33737288 L6.43520613,7.28170213 C5.95230535,6.88859564 5.63224896,6.33000659 5.54176275,5.70873557 L5.52157072,5.5205766 L5.51550658,5.34532261 C5.51550658,3.96950369 6.62256126,2.85714286 7.98584949,2.85714286 Z M7.31110778,7.99745032 C6.65394286,8.22940961 6.10343721,8.77723717 5.64583726,9.67227131 C5.51565668,9.92598882 5.40602461,10.1896281 5.31790656,10.459986 L5.23699562,10.7324649 L5.17782135,10.9719149 L10.8209265,10.9719149 L10.7730876,10.763641 C10.6764681,10.3856601 10.5513461,10.0402539 10.3990022,9.72917415 L10.2796601,9.50232788 L10.1836552,9.34044964 L10.0835551,9.18769891 L9.88229317,8.91713876 L9.64958589,8.65626153 L9.54599401,8.55307868 C8.840639,7.8748068 8.1440517,7.70403557 7.31110778,7.99745032 Z M7.98584949,3.8838946 C7.17505946,3.8838946 6.52070943,4.53940062 6.52070943,5.34532261 C6.52070943,6.15157726 7.17538569,6.80787907 7.98584949,6.80787907 C8.7959876,6.80787907 9.44986578,6.15190961 9.44986578,5.34532261 C9.44986578,4.53906839 8.79631372,3.8838946 7.98584949,3.8838946 Z" />
</svg>
