<?xml version="1.0" encoding="utf-8"?>
<!-- Generator: Adobe Illustrator 21.0.2, SVG Export Plug-In . SVG Version: 6.00 Build 0)  -->
<svg version="1.1" id="Layer_1" xmlns="http://www.w3.org/2000/svg" xmlns:xlink="http://www.w3.org/1999/xlink" x="0px" y="0px"
	 viewBox="0 0 169.8 44.3" style="enable-background:new 0 0 169.8 44.3;" xml:space="preserve">
<style type="text/css">
	.st0{fill:#16B9D4;}
	.st1{opacity:0.65;fill:#0E94A6;}
</style>
<g>
	<path class="st0" d="M71.9,33.8h-2V22.7H56.7v11.1h-2V10.6h2V21h13.2V10.6h2V33.8z"/>
	<path class="st0" d="M98.4,22.7H87.6v9.4H100v1.7H85.6V10.6h14.3v1.7H87.6V21h10.8V22.7z"/>
	<path class="st0" d="M113.9,32.1h11.4v1.7H112V10.6h2V32.1z"/>
	<path class="st0" d="M139.3,33.8h-2V10.6h2V33.8z"/>
	<path class="st0" d="M160.7,20.4l6.5-9.8h2.3L161.9,22l7.9,11.7h-2.4l-6.7-10.1L154,33.8h-2.3l7.9-11.7l-7.7-11.4h2.3L160.7,20.4z"
		/>
</g>
<g>
	<g>
		<g>
			<path d="M37,32.8l-17,9.8c-0.3,0.2-0.7,0.2-1,0L2,32.8c-0.3-0.2-0.5-0.5-0.5-0.9l0-19.6c0-0.4,0.2-0.7,0.5-0.9l17-9.8
				c0.3-0.2,0.7-0.2,1,0l17,9.8c0.3,0.2,0.5,0.5,0.5,0.9l0,19.6C37.5,32.3,37.3,32.7,37,32.8z"/>
		</g>
		<path class="st0" d="M19.5,1.5c0.2,0,0.4,0,0.5,0.1l17,9.8c0.3,0.2,0.5,0.5,0.5,0.9l0,19.6c0,0.4-0.2,0.7-0.5,0.9l-17,9.8
			c-0.2,0.1-0.3,0.1-0.5,0.1c-0.2,0-0.4,0-0.5-0.1L2,32.8c-0.3-0.2-0.5-0.5-0.5-0.9l0-19.6c0-0.4,0.2-0.7,0.5-0.9l17-9.8
			C19.2,1.5,19.3,1.5,19.5,1.5 M19.5,0c-0.4,0-0.9,0.1-1.3,0.3l-17,9.8C0.5,10.6,0,11.4,0,12.3L0,32c0,0.9,0.5,1.7,1.3,2.2l17,9.8
			c0.4,0.2,0.8,0.3,1.3,0.3c0.4,0,0.9-0.1,1.3-0.3l17-9.8c0.8-0.4,1.3-1.3,1.3-2.2l0-19.6c0-0.9-0.5-1.7-1.3-2.2l-17-9.8
			C20.4,0.1,20,0,19.5,0L19.5,0z"/>
	</g>
	<g>
		<path class="st1" d="M11,24.1c0,0.2,0.1,0.5,0.3,0.6l16.6,10.1c0.2,0.1,0.3,0,0.3-0.2v-3.8c0-0.2-0.1-0.5-0.3-0.6L11.3,20.1
			c-0.2-0.1-0.3,0-0.3,0.2V24.1z"/>
		<path class="st1" d="M28.2,20.7c0-0.2-0.1-0.5-0.3-0.6L11.3,10c-0.2-0.1-0.3,0-0.3,0.2V14c0,0.2,0.1,0.5,0.3,0.6l16.6,10.1
			c0.2,0.1,0.3,0,0.3-0.2V20.7z"/>
		<path class="st0" d="M28.2,20.7C28.2,20.7,28.2,20.7,28.2,20.7C28.2,20.7,28.2,20.6,28.2,20.7c0-0.1,0-0.2-0.1-0.3
			c-0.1-0.1-0.2-0.2-0.2-0.2c0.1,0,0.1,0.1,0.1,0.2c0,0.1,0,0.1-0.1,0.2l0,0c0,0,0,0,0,0l-16.6,9.7c-0.2,0.1-0.3,0.4-0.3,0.6v3.8
			c0,0.2,0.2,0.3,0.3,0.2l16.6-9.7c0.2-0.1,0.3-0.4,0.3-0.6L28.2,20.7C28.2,20.7,28.2,20.7,28.2,20.7L28.2,20.7z"/>
		<path class="st0" d="M27.9,10l-16.6,9.7c-0.2,0.1-0.3,0.4-0.3,0.6v3.8c0,0,0,0,0,0l0,0c0,0,0,0,0,0c0,0,0,0,0,0.1
			c0,0.1,0,0.2,0.1,0.3c0.1,0.1,0.2,0.2,0.2,0.2c-0.1,0-0.1-0.1-0.1-0.2c0-0.1,0-0.1,0.1-0.2l0,0c0,0,0,0,0,0l16.6-9.7
			c0.2-0.1,0.3-0.4,0.3-0.6v-3.8C28.2,10,28.1,9.9,27.9,10z"/>
	</g>
</g>
</svg>
